<svg xmlns="http://www.w3.org/2000/svg" viewBox="0 0 296 296"><defs><style>.cls-1{fill:#999;}.cls-2{stroke:#000;stroke-miterlimit:10;}.cls-3{fill:#8c6239;}.cls-4{fill:#c1272d;}.cls-5{fill:#603813;}.cls-6{fill:#fff699;}.cls-7{fill:#ff0;}</style></defs><title>happyBigFootNoseRing</title><g id="circleColor"><path d="M157.5,25.5a138,138,0,0,1,97.58,235.58A138,138,0,1,1,59.92,65.92,137.07,137.07,0,0,1,157.5,25.5m0-10a148,148,0,1,0,148,148,148,148,0,0,0-148-148Z" transform="translate(-9.5 -15.5)"/><path class="cls-1" d="M294.5,129.79a11.36,11.36,0,0,0-4-7,81.79,81.79,0,0,0-1.56-9C286,101.53,279.33,91,272,80.94a26.14,26.14,0,0,0-5.35-7.06,15.09,15.09,0,0,0-5.19-3.15,58,58,0,0,0-6.49-8.37C247.52,54.5,239,47.51,231,40.21a14.28,14.28,0,0,0-14.61-2.89A64.17,64.17,0,0,0,209,33.44c-13.87-6.06-28.59-9.14-43.68-10.15a10.58,10.58,0,0,0-1.49,0,15.87,15.87,0,0,0-7.72-2.72c-14.73-1.31-29.53,2.82-43.56,6.85A112.14,112.14,0,0,0,76.07,45.69c-10.21,7.64-21.74,15.9-29.7,26C41.92,77.27,39,83.61,35.8,90l-10.71,21.4c-3.38,6.75-1.8,15.16,5,19.15,6.21,3.63,15.76,1.76,19.16-5l9.37-18.72c1.49-3,2.88-6.08,4.39-9.12,5,4.39,12.65,5.7,18.73-.35,1.4-1.39,4.56-3.1,7.6-4.75q5-2.7,9.93-5.48,11.11-6.25,22-12.9Q140.52,62.49,159,49.57a16.35,16.35,0,0,0,6.31,1.72,108.45,108.45,0,0,1,19.16,3,12.53,12.53,0,0,0-1.1,2.71c-2.14,7.78,2.64,14.63,9.77,17.22-2.28-.74,2.66,1.58,1.88.88a31.21,31.21,0,0,1,3.22,3,42.94,42.94,0,0,1,6.51,8c1.14,1.79,2.09,3.49,2.94,5.16a29.48,29.48,0,0,0-3.21-.49c-5.21-.51-10.23.69-15.42.94-4.83.24-6.25-.47-10.33-3.57-6-4.57-15.66-.95-19.16,5-4.2,7.18-1,14.57,5,19.16,10,7.6,21.18,7.61,33.06,6.47,1.14-.11,2.27-.2,3.42-.21.28,0,1.92.18,2.29.2s.95.3,1.06.32a29.74,29.74,0,0,1,2.86,1.63c3.54,2.16,6.82,4.65,10.39,6.74a190.84,190.84,0,0,0,5.21,20.92,15.1,15.1,0,0,0,3.73,6.07c-3.34,9.57-7.38,18.9-8.89,29-1,7-1.38,14.22.42,21.17,2.3,8.92,10.66,15.48,20.07,12.69a14.47,14.47,0,0,0,9.11-8.16,16.83,16.83,0,0,0,7.29-3.43l.71-.59c-5.84,9.7-12.57,18.87-18.09,28.75-.58,1-1.11,2.07-1.63,3.12a48.05,48.05,0,0,0-5.46,6.37c-4.71,6.76-7.61,14.75-9.91,22.61a14,14,0,0,0,8.11,16.52c5.89,2.37,14.57.71,17.48-5.73a3.53,3.53,0,0,0,.42-1.21l.48-.53c.77-.88,1.62-1.71,2.39-2.6a33.89,33.89,0,0,0,5.74-9.11,17,17,0,0,0,8.08-6.18,202.45,202.45,0,0,0,17.94-29.49c5.28-10.7,10.77-22.23,12.62-34.1a18.73,18.73,0,0,0,.16-4.66,139.55,139.55,0,0,0,2.14-14.9A155.12,155.12,0,0,0,294.5,129.79Z" transform="translate(-9.5 -15.5)"/></g><g id="faceColor"><path d="M201.75,155a7.61,7.61,0,0,0-1,1.23,2.33,2.33,0,0,0,0,2,2.37,2.37,0,0,0,3,1.63,2.49,2.49,0,0,0,1.61-1.44c.24-.93-.26.26-.23.29l.31-.4a2.11,2.11,0,0,0,.26-1,2.83,2.83,0,0,0-2.1-2.6,1.51,1.51,0,0,0-1.84,1,1.53,1.53,0,0,0,1.05,1.84c-.14-.08-.14-.08,0,0-.12-.1-.11-.09,0,0-.08-.12-.11-.44-.14-.21l.2-.76c-.07.14-.06.14.05,0a2.88,2.88,0,0,0-.3.39,1.69,1.69,0,0,0-.22.95l.44-1.06-.12.08a.82.82,0,0,1,.61.09c.27.31.33.35.19.14.05.12.05.13,0,0a1.72,1.72,0,0,1-.07-.21c-.31.72-.33.91-.07.58a6.41,6.41,0,0,0,.49-.55,1.5,1.5,0,0,0-2.12-2.12Z" transform="translate(-9.5 -15.5)"/><path d="M184.63,156.77c-.27,0-.68-.27-.39.1a1.47,1.47,0,0,1-.15-.7c0-.36.14-.95.51-.93a.83.83,0,0,1,.62.68,1,1,0,0,1-.68,1l1.69.69-.32-.72c-.17-.38-.06-.6-.2,0l-.39.66.11-.09a1.5,1.5,0,0,0,0-2.12,1.54,1.54,0,0,0-2.12,0c-1.25,1-.15,2.73.33,3.83a1.52,1.52,0,0,0,1.7.69,4.07,4.07,0,0,0,2.88-4,3.79,3.79,0,0,0-3.62-3.52c-4.1,0-4.88,6.74-.77,7.41a1.55,1.55,0,0,0,1.85-1,1.51,1.51,0,0,0-1.05-1.85Z" transform="translate(-9.5 -15.5)"/><path d="M183.19,159.54l.85.32a1.52,1.52,0,0,0,1.85-1.05,1.55,1.55,0,0,0-1-1.85l-.85-.31a1.51,1.51,0,0,0-1.85,1,1.53,1.53,0,0,0,1.05,1.84Z" transform="translate(-9.5 -15.5)"/><path d="M186.37,172.54c3,3.58,7.07,6.7,12,6.45,3.77-.19,8.19-2.48,9.68-6,.74-1.77-2.16-2.55-2.9-.79-1.22,2.9-6.22,4.13-8.92,3.61-3.29-.63-5.66-2.9-7.75-5.37-1.25-1.47-3.37.66-2.13,2.12Z" transform="translate(-9.5 -15.5)"/><path d="M190.13,173.28c.91-.3,1.5,1.05,1.85,1.68a1.5,1.5,0,0,0,2.59-1.51c-1.06-1.89-2.83-3.85-5.24-3.06-1.83.59-1,3.49.8,2.89Z" transform="translate(-9.5 -15.5)"/><path d="M204.46,171.6A4.81,4.81,0,0,0,201,173a1.5,1.5,0,0,0,2.12,2.13,1.7,1.7,0,0,1,1.33-.57,1.51,1.51,0,0,0,1.5-1.5,1.54,1.54,0,0,0-1.5-1.5Z" transform="translate(-9.5 -15.5)"/><path d="M153.11,135a52.71,52.71,0,0,0,6.74-2.24c1.76-.72,1-3.63-.79-2.89a51.78,51.78,0,0,1-6.75,2.23c-1.86.48-1.07,3.38.8,2.9Z" transform="translate(-9.5 -15.5)"/><path d="M156.25,131.91c-3.74,7.23-7.65,13.16-8.47,21.52a38.65,38.65,0,0,0,4.64,22.19c7.13,13.07,21,22.26,35.62,24.37s32.15-3.22,40.59-16c4.23-6.41,5.7-15.07,6.27-22.59a21.61,21.61,0,0,0-1.9-11.13,32,32,0,0,0-1.69-3c-.21-1.16-.81-1.68-1.8-1.55.25,1.61,4.08,2.74,5.31,3.36,1.72.87,3.24-1.72,1.51-2.59-2.65-1.35-5.05-2.81-8-3.18a1.51,1.51,0,0,0-1.3.74l-.23.31a1.44,1.44,0,0,0,0,1.51c2.49,3.7,4.82,7.38,5.16,12,.27,3.64-.49,7.38-1.16,10.94-1.24,6.69-3.23,13-8.25,17.84-10.14,9.83-25.44,13-38.91,9.49-12.34-3.2-23.69-11.77-29.34-23.31a35.77,35.77,0,0,1-3.52-19.31c.79-7.73,4.6-13.33,8.06-20,.89-1.71-1.7-3.23-2.59-1.52Z" transform="translate(-9.5 -15.5)"/><path d="M153.65,136.26c-3.05,5.27-6.91,9.79-10.36,14.77-3,4.32-4.7,9.5-6,14.54A80.61,80.61,0,0,0,136,199.75c.33,1.9,3.22,1.09,2.89-.8a77.17,77.17,0,0,1,1.74-34.29,39.84,39.84,0,0,1,6.47-13.73,120.62,120.62,0,0,0,9.14-13.16,1.5,1.5,0,0,0-2.59-1.51Z" transform="translate(-9.5 -15.5)"/><path d="M135.68,200c2.23,10.43,6.35,23.81,14.7,31,8,6.9,18.5,10.59,28.88,11.65,12.37,1.26,25.2-1.28,36.58-6.15,9-3.88,17-10.37,19.36-20.33.44-1.88-2.46-2.68-2.89-.8-2.42,10.43-11.6,16.27-21.07,19.74-10.14,3.71-21.17,5.7-32,4.54-10-1.08-20.59-4.76-28-11.84-3.78-3.65-5.67-8.18-7.61-13a94,94,0,0,1-5.12-15.66c-.41-1.88-3.3-1.08-2.89.8Z" transform="translate(-9.5 -15.5)"/><path d="M234.87,214.51c-4.59-3.84-7.54-6.92-7.72-13.3a53.51,53.51,0,0,1,2.2-16.35,1.5,1.5,0,0,0-2.89-.8,52.68,52.68,0,0,0-2.09,20.61c.67,5.55,4.27,8.51,8.38,12,1.47,1.23,3.61-.88,2.12-2.12Z" transform="translate(-9.5 -15.5)"/><path d="M147.79,159.92c-1.42,2.13-2,4.83-2.67,7.28s-1.83,5.68-1.47,8.3a3.53,3.53,0,0,0,2.61,3.11c2.42.54,2.51-2.17,4.38-2.22s1.94-3,0-3a4,4,0,0,0-2.65.79c-.25.19-.76,1.1-1,1.18-.58.19-.19-2-.07-2.75.53-3.49,1.47-8.22,3.44-11.18,1.08-1.61-1.52-3.11-2.59-1.51Z" transform="translate(-9.5 -15.5)"/><path d="M151.23,174.65c-1,4-3,7.5-3.28,11.7-.17,3,.14,7.38,2.6,9.43,5.61,4.67,11-5.08,13.5-8.67,1.09-1.6-1.51-3.11-2.59-1.52-1.21,1.78-2.42,3.59-3.75,5.28-1.16,1.48-2.43,3.39-4.5,2.54-1.58-.64-1.75-1.67-2.08-3.37-1-5.38,1.77-9.63,3-14.59.46-1.88-2.43-2.68-2.9-.8Z" transform="translate(-9.5 -15.5)"/><path d="M163.78,189.27c0,3.54-.45,7.37,0,10.88a5.93,5.93,0,0,0,3.62,4.7c5.31,2.41,9.15-3.6,11.22-7.58.9-1.71-1.69-3.23-2.59-1.52a25.94,25.94,0,0,1-2.53,4.08c-1.62,2.06-5.5,4-6.62.27-.46-1.52-.16-3.43-.15-5v-5.84a1.5,1.5,0,0,0-3,0Z" transform="translate(-9.5 -15.5)"/><path d="M179.43,197.93a62.11,62.11,0,0,0,1.15,12.69c.47,2.36,1.22,5.41,3.89,6.16s4.9-1.45,6.06-3.65a73,73,0,0,0,4.86-12.5c.57-1.85-2.33-2.65-2.89-.8-.78,2.53-1.69,5-2.7,7.44-.66,1.62-3.14,9.19-5.63,5.18-1.1-1.77-1.18-5.12-1.4-7.11a63.27,63.27,0,0,1-.34-7.41,1.5,1.5,0,0,0-3,0Z" transform="translate(-9.5 -15.5)"/><path d="M194.77,200.51c.3,5.21,2.45,17.33,9.9,16.84s6.4-14.75,6.5-19.42c0-1.93-3-1.93-3,0,0,2.35-.14,4.7-.33,7-.18,2.17-.06,5.81-1.52,7.58-1.29,1.55-4.2,1-5.36-.74a15.93,15.93,0,0,1-1.42-2.94,26.3,26.3,0,0,1-1.77-8.36c-.12-1.92-3.12-1.93-3,0Z" transform="translate(-9.5 -15.5)"/><path d="M212.21,196.6c.46,4.13,2.89,12.56,8.58,8.67,5.07-3.47,5.75-11.11,6.44-16.63.24-1.91-2.76-1.89-3,0-.43,3.47-.88,7-2.31,10.26-.81,1.8-1.5,3.42-3.59,3.41-1.74,0-1.63-.39-2.21-1.89a14.9,14.9,0,0,1-.91-3.82c-.21-1.9-3.21-1.92-3,0Z" transform="translate(-9.5 -15.5)"/><path d="M231.87,220.41a9.16,9.16,0,0,0-4.17-6c-1.66-1-4.56-2-6.4-.87-2.1,1.33-2.2,5.3-2.23,7.48a20.63,20.63,0,0,0,2.3,9.44c.86,1.73,3.45.21,2.59-1.51-1.69-3.41-2.58-7.76-1.45-11.5,1.21-4,6,1.62,6.47,3.79.4,1.89,3.29,1.09,2.89-.8Z" transform="translate(-9.5 -15.5)"/><path d="M221.31,230.32c-.86-3.61-5.39-12-10.27-9.85-2.09.93-3,3.94-3.51,6a35,35,0,0,0-.34,10.47c.14,1.91,3.14,1.93,3,0-.26-3.68-1-8.8,1-12.12,2.57-4.24,6.64,4,7.19,6.32.44,1.88,3.34,1.08,2.89-.8Z" transform="translate(-9.5 -15.5)"/><path d="M204.17,237.44c.3-5.29-1.22-13.73-8.58-12.49-2.56.43-4.31,3.21-5.6,5.24a24.7,24.7,0,0,0-3.58,9.85c-.27,1.89,2.62,2.7,2.89.79A22.22,22.22,0,0,1,194,229.77c2.2-2.7,5.43-2,6.72,1.26.8,2,.59,4.31.47,6.41-.1,1.93,2.9,1.92,3,0Z" transform="translate(-9.5 -15.5)"/><path d="M185.07,240.41c.63-4.21,0-11.51-5.2-12.66A4.24,4.24,0,0,0,175,230.2a14.3,14.3,0,0,0-.75,3.49,23,23,0,0,1-1.4,4.81c-.73,1.79,2.18,2.56,2.89.79a22.79,22.79,0,0,0,1.4-4.8c.23-1.31.08-3.71,1.81-3.81,3.45-.2,3.58,6.85,3.27,8.93-.28,1.89,2.61,2.7,2.89.8Z" transform="translate(-9.5 -15.5)"/><path d="M172.79,238.08c0-2.91.47-8.11-2.68-9.71a3.27,3.27,0,0,0-3.93,1,58.25,58.25,0,0,0-3.66,5c-1.13,1.57,1.48,3.07,2.6,1.52l2-2.84c.48-.67,1.47-2.75,2.07-1.26.78,1.9.53,4.24.56,6.25s3,1.93,3,0Z" transform="translate(-9.5 -15.5)"/><path d="M165.37,235.28c-.1-3.3-.06-6.65-.32-9.94-.15-1.88-.61-3.92-2.33-5-4.81-3-9.05,4.32-11.41,7.28-1.2,1.49.91,3.63,2.12,2.12,1.06-1.32,2.11-2.65,3.18-4,1.29-1.61,3.93-4.42,5.3-1.47.58,1.23.23,3.49.27,4.82l.19,6.15c.06,1.93,3.06,1.93,3,0Z" transform="translate(-9.5 -15.5)"/><path d="M145.68,217.34c1.12-1.66,2.16-3.33,4.24-3.38,1.63,0,1.94.58,2.2,2.15a6.05,6.05,0,0,1-.28,3c-.85,2.43-2.9,4.13-3.57,6.68a1.5,1.5,0,0,0,2.89.8c.74-2.8,3.16-4.7,3.83-7.58a8.14,8.14,0,0,0-1.12-6.57c-3.67-4.87-8.45-.08-10.78,3.38-1.08,1.6,1.51,3.11,2.59,1.51Z" transform="translate(-9.5 -15.5)"/><path d="M144,213.41c.16-3.17,2.56-6,1.4-9.25-.94-2.64-4.09-4.24-6.2-5.83-1.54-1.15-3,1.45-1.51,2.59,2.2,1.66,5.51,3.14,4.88,6.35-.42,2.12-1.46,3.93-1.57,6.14-.1,1.93,2.9,1.92,3,0Z" transform="translate(-9.5 -15.5)"/><path d="M166.17,225.43c4.07-2.52,8.37-4.65,13.15-2.49,1.85.84,2.91,2.18,5.1,1.59,1.82-.5,2.7-2,3.87-3.34a15,15,0,0,1,9.83-5.41c1.91-.27,1.1-3.16-.79-2.89a17.72,17.72,0,0,0-8.09,3.19,34,34,0,0,0-2.83,2.66c-.23.27-.46.55-.68.84q-2.72,2.85-4.9.77c-2.69-.69-4.15-1.68-7.2-1.3-3.29.4-6.21,2.07-9,3.79-1.64,1-.13,3.61,1.51,2.59Z" transform="translate(-9.5 -15.5)"/><path d="M207.07,215.11a11.87,11.87,0,0,1,5.73,5.46c.88,1.72,3.47.21,2.59-1.51a14.47,14.47,0,0,0-6.8-6.54c-1.75-.81-3.27,1.78-1.52,2.59Z" transform="translate(-9.5 -15.5)"/><path d="M198.72,215.42a1.5,1.5,0,0,0,0-3,1.5,1.5,0,0,0,0,3Z" transform="translate(-9.5 -15.5)"/><path d="M158.1,211.14c7.66,0,7.67-11.9,0-11.9s-7.68,11.9,0,11.9Z" transform="translate(-9.5 -15.5)"/><path d="M156.72,207.25a6.42,6.42,0,0,0,2.9-1.67,7.48,7.48,0,0,0,1.69-2.89,6,6,0,0,0-8.75-6.73,6.53,6.53,0,0,0-2.73,3.56l0,.12.6-1.42-.07.1.93-1.2-.09.09,1.2-.94-.11.07,1.42-.6-.12,0a6.12,6.12,0,0,0-3.55,2.74,6,6,0,0,0,2.13,8.14,6.22,6.22,0,0,0,4.59.6Z" transform="translate(-9.5 -15.5)"/><path d="M160.07,203.81c7.66,0,7.67-11.9,0-11.9s-7.67,11.9,0,11.9Z" transform="translate(-9.5 -15.5)"/><path d="M161.06,210.58c7.66,0,7.67-11.91,0-11.91s-7.68,11.91,0,11.91Z" transform="translate(-9.5 -15.5)"/><path d="M167.26,214.24c7.66,0,7.67-11.91,0-11.91s-7.68,11.91,0,11.91Z" transform="translate(-9.5 -15.5)"/><path d="M174.86,214.1c7.66,0,7.68-11.91,0-11.91s-7.67,11.91,0,11.91Z" transform="translate(-9.5 -15.5)"/><path d="M176.84,211c7.66,0,7.67-11.91,0-11.91s-7.68,11.91,0,11.91Z" transform="translate(-9.5 -15.5)"/><path d="M176.7,221.14c7.66,0,7.67-11.9,0-11.9s-7.68,11.9,0,11.9Z" transform="translate(-9.5 -15.5)"/><path d="M178.67,221c7.66,0,7.67-11.9,0-11.9s-7.68,11.9,0,11.9Z" transform="translate(-9.5 -15.5)"/><path d="M142.6,186.48c7.66,0,7.67-11.9,0-11.9s-7.68,11.9,0,11.9Z" transform="translate(-9.5 -15.5)"/><path d="M141.75,192c7.66,0,7.68-11.91,0-11.91s-7.67,11.91,0,11.91Z" transform="translate(-9.5 -15.5)"/><path d="M142.88,198.74c7.66,0,7.67-11.9,0-11.9s-7.67,11.9,0,11.9Z" transform="translate(-9.5 -15.5)"/><path d="M143,201c7.66,0,7.67-11.91,0-11.91S135.35,201,143,201Z" transform="translate(-9.5 -15.5)"/><path d="M147.53,204.66c7.66,0,7.67-11.91,0-11.91s-7.67,11.91,0,11.91Z" transform="translate(-9.5 -15.5)"/><path d="M150.49,211.28c7.66,0,7.67-11.9,0-11.9s-7.68,11.9,0,11.9Z" transform="translate(-9.5 -15.5)"/><path d="M157.81,216.07c7.67,0,7.68-11.9,0-11.9s-7.67,11.9,0,11.9Z" transform="translate(-9.5 -15.5)"/><path d="M158.38,223c7.66,0,7.67-11.91,0-11.91s-7.68,11.91,0,11.91Z" transform="translate(-9.5 -15.5)"/><path d="M166.41,222.55c7.66,0,7.67-11.9,0-11.9s-7.67,11.9,0,11.9Z" transform="translate(-9.5 -15.5)"/><path d="M166.27,224.1c7.66,0,7.67-11.9,0-11.9s-7.68,11.9,0,11.9Z" transform="translate(-9.5 -15.5)"/><path d="M169.09,223.12c7.66,0,7.67-11.91,0-11.91s-7.68,11.91,0,11.91Z" transform="translate(-9.5 -15.5)"/><path d="M215.16,214c7.66,0,7.67-11.91,0-11.91s-7.67,11.91,0,11.91Z" transform="translate(-9.5 -15.5)"/><path d="M214.74,217.2c7.66,0,7.67-11.91,0-11.91s-7.68,11.91,0,11.91Z" transform="translate(-9.5 -15.5)"/><path d="M216.57,220.86c7.66,0,7.67-11.9,0-11.9s-7.67,11.9,0,11.9Z" transform="translate(-9.5 -15.5)"/><path d="M221.78,214.1c7.66,0,7.68-11.91,0-11.91s-7.67,11.91,0,11.91Z" transform="translate(-9.5 -15.5)"/><path d="M211.78,202.69c3.86,0,3.87-6,0-6s-3.87,6,0,6Z" transform="translate(-9.5 -15.5)"/><path d="M211.78,205.65c3.86,0,3.87-6,0-6s-3.87,6,0,6Z" transform="translate(-9.5 -15.5)"/><path d="M223.19,206.78c3.86,0,3.87-6,0-6s-3.87,6,0,6Z" transform="translate(-9.5 -15.5)"/><path d="M227.28,215.37c3.86,0,3.86-6,0-6s-3.87,6,0,6Z" transform="translate(-9.5 -15.5)"/><path d="M231.08,218.61c3.86,0,3.87-6,0-6s-3.87,6,0,6Z" transform="translate(-9.5 -15.5)"/><path d="M149.36,181c3.86,0,3.87-6,0-6s-3.87,6,0,6Z" transform="translate(-9.5 -15.5)"/><path d="M148.8,182.69c3.86,0,3.86-6,0-6s-3.87,6,0,6Z" transform="translate(-9.5 -15.5)"/><path d="M148.37,185.64c3.87,0,3.87-6,0-6s-3.86,6,0,6Z" transform="translate(-9.5 -15.5)"/><path d="M147.53,190.58c3.86,0,3.87-6,0-6s-3.87,6,0,6Z" transform="translate(-9.5 -15.5)"/><path d="M142,177.05c3.87,0,3.87-6,0-6s-3.86,6,0,6Z" transform="translate(-9.5 -15.5)"/><path d="M143.25,173.81l0-.17.1.8a5.36,5.36,0,0,1,0-1.06l-.11.79a4.52,4.52,0,0,1,.27-1,3.06,3.06,0,0,0-.31-2.31,3,3,0,0,0-1.79-1.38,3.08,3.08,0,0,0-3.69,2.09,7.66,7.66,0,0,0-.24,3.86,3,3,0,0,0,1.38,1.79,3,3,0,0,0,4.1-1.07,3.57,3.57,0,0,0,.3-2.32Z" transform="translate(-9.5 -15.5)"/><path d="M147.25,154.51c3.86,0,3.86-6,0-6s-3.87,6,0,6Z" transform="translate(-9.5 -15.5)"/><path d="M145.28,159.86c3.86,0,3.86-6,0-6s-3.87,6,0,6Z" transform="translate(-9.5 -15.5)"/><path d="M146,158.17c3.86,0,3.87-6,0-6s-3.87,6,0,6Z" transform="translate(-9.5 -15.5)"/><path d="M143.73,163.81c3.86,0,3.86-6,0-6s-3.87,6,0,6Z" transform="translate(-9.5 -15.5)"/><path d="M141.33,167.05c3.86,0,3.87-6,0-6s-3.87,6,0,6Z" transform="translate(-9.5 -15.5)"/><path d="M146.4,163.24c3.86,0,3.87-6,0-6s-3.86,6,0,6Z" transform="translate(-9.5 -15.5)"/><path d="M144.29,169.58c3.86,0,3.87-6,0-6s-3.87,6,0,6Z" transform="translate(-9.5 -15.5)"/><path d="M144.85,167.05c3.86,0,3.87-6,0-6s-3.86,6,0,6Z" transform="translate(-9.5 -15.5)"/><path d="M141.19,171.41c3.86,0,3.87-6,0-6s-3.87,6,0,6Z" transform="translate(-9.5 -15.5)"/><path d="M143.44,173.25c3.86,0,3.87-6,0-6s-3.86,6,0,6Z" transform="translate(-9.5 -15.5)"/><path d="M178.24,202.27c3.87,0,3.87-6,0-6s-3.86,6,0,6Z" transform="translate(-9.5 -15.5)"/><path d="M162.46,193.68c3.87,0,3.87-6,0-6s-3.86,6,0,6Z" transform="translate(-9.5 -15.5)"/><path d="M146,213.4c3.86,0,3.87-6,0-6s-3.87,6,0,6Z" transform="translate(-9.5 -15.5)"/><path d="M144.71,215.66c3.86,0,3.87-6,0-6s-3.87,6,0,6Z" transform="translate(-9.5 -15.5)"/><path d="M154.29,225.94c3.86,0,3.87-6,0-6s-3.86,6,0,6Z" transform="translate(-9.5 -15.5)"/><path d="M152.18,228.9c3.86,0,3.87-6,0-6s-3.87,6,0,6Z" transform="translate(-9.5 -15.5)"/><path d="M184.16,221.29c3.86,0,3.87-6,0-6s-3.86,6,0,6Z" transform="translate(-9.5 -15.5)"/><path d="M182.75,222.14c3.86,0,3.87-6,0-6s-3.86,6,0,6Z" transform="translate(-9.5 -15.5)"/><path d="M188.11,219.46c3.86,0,3.86-6,0-6s-3.87,6,0,6Z" transform="translate(-9.5 -15.5)"/><path d="M192.62,215.51c3.86,0,3.86-6,0-6s-3.87,6,0,6Z" transform="translate(-9.5 -15.5)"/><path d="M192.05,216.08c3.86,0,3.87-6,0-6s-3.86,6,0,6Z" transform="translate(-9.5 -15.5)"/><path d="M195,208.19c3.86,0,3.87-6,0-6s-3.87,6,0,6Z" transform="translate(-9.5 -15.5)"/><path d="M194.45,211.15c3.86,0,3.87-6,0-6s-3.87,6,0,6Z" transform="translate(-9.5 -15.5)"/><path d="M196,214.11c3.86,0,3.87-6,0-6s-3.87,6,0,6Z" transform="translate(-9.5 -15.5)"/><path d="M218.68,224.39c3.86,0,3.87-6,0-6s-3.86,6,0,6Z" transform="translate(-9.5 -15.5)"/><path d="M217.84,224.11c3.86,0,3.86-6,0-6s-3.87,6,0,6Z" transform="translate(-9.5 -15.5)"/><path d="M219.25,226.79c3.86,0,3.86-6,0-6s-3.87,6,0,6Z" transform="translate(-9.5 -15.5)"/><path d="M240.78,157.18c2.21-4.76,6.89-11.61,4.56-17.08a7.79,7.79,0,0,0-4.9-4.23c-2.07-.69-3.54-.06-4.93-1.59s-3.41.69-2.12,2.12c2.06,2.27,3.39,1.31,6.25,2.36,7,2.58.53,12.65-1.45,16.91-.81,1.74,1.78,3.27,2.59,1.51Z" transform="translate(-9.5 -15.5)"/><path d="M145.21,124.8a219.13,219.13,0,0,0-15.34,22c-.82,1.35.77,2.69,2,2.05l5-2.5-2.21-1.7a200.62,200.62,0,0,1-9.15,20.42,1.52,1.52,0,0,0,2.06,2l2.89-.57-1.45-1.9L120,187a1.52,1.52,0,0,0,2.21,1.69,10.94,10.94,0,0,1,6-2.25l-1.5-1.5a39.76,39.76,0,0,1-2.54,17.64c-.43,1.14.84,2.07,1.85,1.85l2.17-.48-1.89-1.45A166.14,166.14,0,0,0,129,223a1.51,1.51,0,0,0,2.51.66c.4-.51,3.27-4.8,3.74-4.73s.52,4.82.54,5.15c.11,1.66-.22,4.46,1,5.85,1.59,1.8,2.69.1,4.38.92.17.09.7,5.49,1.68,6.63a1.52,1.52,0,0,0,1.81.23,5.31,5.31,0,0,0,1.42-1.07l-2.35-.31c2.78,4.21-2,13.68,2.92,17.15,1.74,1.23,3.54.07,5.23-.7,4-1.81,8-3.65,12-5.48l-1.82-.23c1.71,1.53,2.09,4.73,3.65,6.55a8.54,8.54,0,0,0,5.27,3.08c5.37.69,6.38-4.92,10.4-6.73,4.83-2.18,3.4,2.94,5,5.08a3.56,3.56,0,0,0,2.95,1.37c2,.11,4.36-1.17,6.07-1.94,1.34-.61,2.7-1.8,4.08-2.26q1.86-2.11,4.15.39a10.11,10.11,0,0,1-.14,2.33c-.16,1.26,1.35,1.71,2.25,1.3a53.64,53.64,0,0,0,20.72-16.52l-2.8-.76,0,7.79c0,1.21,1.7,2.1,2.56,1.06,3.33-4,6.56-8.09,9.64-12.29,2.73-3.71,6.09-6.2,9.1-9.69,6-7,12.77-15.71,14.79-24.89,1-4.68,1.63-13.93-5.54-12.59-5.11,1-10.37,3.72-15.13,5.74-4.41,1.87-9.26,5.22-13.89,6.33-1.87.44-1.08,3.34.8,2.89,2.63-.63,5.19-2.39,7.65-3.54,4.36-2,8.8-3.91,13.28-5.65,3.87-1.49,10.16-5.53,10.4,1.24.17,4.71-1.6,9.25-3.87,13.28-3.8,6.76-8.74,14.21-14.71,19.21-5.8,4.86-9.76,12-14.64,17.84l2.56,1.06,0-7.79a1.51,1.51,0,0,0-2.79-.76,50.73,50.73,0,0,1-19.64,15.45l2.26,1.29c.37-3-.27-8-4.48-7.55-3.16.37-6.25,3.79-9.21,4.95-2.06.8-3.11,1.8-4.26-1-.37-.91-.06-1.79-.55-2.73-1.74-3.37-6-2.89-8.69-1-2.91,2-4.78,7.76-9.62,5.57-3.4-1.54-3-6-5.49-8.19a1.56,1.56,0,0,0-1.81-.24l-7.72,3.52c-1.28.59-2.88,1.73-4.28,2-2.73.45-2.55-1-2.82-3.27-.47-3.9,1-8.68-1.23-12.1a1.52,1.52,0,0,0-2.36-.3,2.67,2.67,0,0,1-.81.6l1.82.23c-.43-.49.55-3.72.19-4.76a4,4,0,0,0-1.66-2.12c-1.13-.72-2.58,0-3.52-.48-1.79-.92-1.26-5.3-1.4-7.23s-.1-4.86-2.53-5.31c-2.89-.53-5.28,4.35-6.66,6.09l2.51.66a158.94,158.94,0,0,1-2.61-19.68,1.52,1.52,0,0,0-1.9-1.44l-2.18.47,1.85,1.85A41.71,41.71,0,0,0,129.7,185a1.52,1.52,0,0,0-1.5-1.5,13.77,13.77,0,0,0-7.48,2.66l2.21,1.69,9-22.32c.39-.95-.57-1.86-1.44-1.9a8.24,8.24,0,0,0-4.41,1l2.06,2a209,209,0,0,0,9.44-21.13c.51-1.32-1.14-2.22-2.2-1.69l-5,2.5,2.05,2.05a213.77,213.77,0,0,1,14.87-21.44c1.19-1.5-.92-3.64-2.12-2.12Z" transform="translate(-9.5 -15.5)"/><path d="M238.32,155.53a74.72,74.72,0,0,1-7.45,13.29c-1.11,1.59,1.49,3.09,2.59,1.52a76.07,76.07,0,0,0,7.45-13.29c.75-1.76-1.83-3.29-2.59-1.52Z" transform="translate(-9.5 -15.5)"/><circle class="cls-2" cx="175" cy="141" r="2.5"/><circle class="cls-2" cx="193.5" cy="142.5" r="3"/><path class="cls-3" d="M256.1,189.39a3,3,0,0,0-3.92.82,5.58,5.58,0,0,0-1-.13c-3.87-.17-6.46,2.95-9.47,4.91a14.24,14.24,0,0,0-6.05,1.94,2.77,2.77,0,0,0-1.44,2.64c-2.49.08-4,1.69-6.41,2.24-2.77.63-2.95,5.29,0,5.79.36.06.71.1,1.06.14a3.08,3.08,0,0,0,1.33,2.77c1,.75,2.28,1.91,3.64,3a2.66,2.66,0,0,0,1.24,1.62l-3.64,5.79a2.63,2.63,0,0,0-.24,2.5,3,3,0,0,0-.78.94c-1.63,1-2.35,2.67-3.24,4.26a8.81,8.81,0,0,0-1.43,1.66c-2.6,2.66-6.09,3.39-9.65,4.28A50.18,50.18,0,0,0,204.72,239a32.6,32.6,0,0,1-12.16,3.24,3.34,3.34,0,0,0-2.21.14,76.44,76.44,0,0,1-13.35-.74,5.27,5.27,0,0,0-3.2-.73,3.25,3.25,0,0,0-3.08-.08l-.22.13-.14-.25a2.93,2.93,0,0,0-4.07-1,4.57,4.57,0,0,0-1.31-1.11c-1.14-.63-5.1-1.24-6.41-2.45a7.75,7.75,0,0,0-.85-2.3,3.06,3.06,0,0,0-4.37-.87,7.44,7.44,0,0,0-2.2-2.67,3.49,3.49,0,0,0-2.18-.73c-.94-2.48-1.08-5.54-3.8-6.95a5.87,5.87,0,0,0-1.59-.54,40.19,40.19,0,0,0-6.09-16.78,3,3,0,0,0-.85-.89c0-.59,0-1.19,0-1.78a20.89,20.89,0,0,0-.06-10.23,2.88,2.88,0,0,0-1.47-1.77c.09-3.05.24-6.1.56-9.13a68.16,68.16,0,0,1,1.3-8.05,25,25,0,0,1,1.25-4.44q.51-1.78.24-.42c-.29.79.06,1.37,1,1.77,2.68,2.79,6.92-1.46,4.25-4.25a17.73,17.73,0,0,0-3.91-3.52,17.77,17.77,0,0,1,1-2.05,3.29,3.29,0,0,0,4.45-.81l2.08-3.09a3.12,3.12,0,0,0,1.78-1c-.34,3.85,1.25,7.43,2.86,11a2.88,2.88,0,0,0,.19,2.18,2.88,2.88,0,0,0-.08,2.93c2.92,5.67,8.06,10.9,12.7,15.2a42.49,42.49,0,0,0,14.36,8.94,43.47,43.47,0,0,0,31.73-1c10.56-4.55,18.73-13.31,20.57-24.87a66,66,0,0,0,.82-8.15,2.91,2.91,0,0,0,3.88-.26c3.44-4.19,6.45-8.72,6.55-13.71a7.67,7.67,0,0,0-.47-7.46c-4.69-7.85-14.83-3.59-20.65-9a16.27,16.27,0,0,0-4.81-3.32,2.89,2.89,0,0,0-5.16.75,8.68,8.68,0,0,0-1.89,2.78c-.91,2-1.44,3.77-3.05,5.39-2.93,3-3.93,1.4-6-1.19L191,123.78c-2.19-2.71-6.34.75-4.71,3.63-.73-1.29-4,2.74-4.26,3.41-1.05,2.44-.42,5.44-.06,8a3.08,3.08,0,0,0-.65.65,3.39,3.39,0,0,0-2-.59c1-1.39,1.11-3.58-.76-4.4a31.38,31.38,0,0,0-3.8-1.41c1.91-.34,3.5-2.27,2.07-4.27a5.39,5.39,0,0,0-2.79-2.34,2.65,2.65,0,0,0-.17-.89v0a13.48,13.48,0,0,0,.83-1.37,3,3,0,0,0-5.18-3c-.23.34-.43.7-.64,1.06a6.17,6.17,0,0,1-2.32,2c-.67-1.93-1.88-3.33-3.6-3.56-.38-2.61-4.18-4.42-5.48-1.39a61.85,61.85,0,0,1-6.85,12,3,3,0,0,0-5.09-2.08c-3.49,3.42-7.18,6.71-10.5,10.29-2.38,2.56-3.55,4.76-2.93,8.25a2.76,2.76,0,0,0,2.85,2.16,46.7,46.7,0,0,0-4,8.3,15.59,15.59,0,0,0-1.66,4.12,2.8,2.8,0,0,0,.6,2.59q-.3.67-.54,1.35l-.31.67a2.65,2.65,0,0,0-.85-.76,3,3,0,0,0-4.11,1.08l-.59,1.18a3.23,3.23,0,0,0-.3,2.32,3.05,3.05,0,0,0,1.38,1.79,3.38,3.38,0,0,0,2.15.31,2.46,2.46,0,0,0,.3,1.12,25.08,25.08,0,0,0-2.23,5.2,5.49,5.49,0,0,0-2.78,3.38c-.66,1.72.92,3.66,2.64,3.82a41.47,41.47,0,0,0,2.73,8.79,3.42,3.42,0,0,0-1.25,2.24c-.38,3.3-2.22,6.27-.21,9.45a5.34,5.34,0,0,0,3.27,2.32,3.38,3.38,0,0,0-.07,2.7,5.23,5.23,0,0,0-.86,1.9A4.4,4.4,0,0,0,131,219a2.64,2.64,0,0,0,1.59.46l.24,0a8.93,8.93,0,0,0,4.07-.54,35.32,35.32,0,0,1,1,7.12,3,3,0,0,0,5.59,1.51c-2,3.11,0,6.39,2.75,8.64l.78,12a3,3,0,0,0,4.92,2.18,3.19,3.19,0,0,0,4.27.23c1.23-1,2.41-2.15,3.73-3,1.68-1.14,2.92-2.36,4.3-1.08a5.06,5.06,0,0,0,1.59,1.66l.36.18a8.63,8.63,0,0,0,3.07,4.55,6.22,6.22,0,0,0,7.88-.17,7.39,7.39,0,0,0,2.49-4.72c2.42.26,4.89.44,7.37.49a3.16,3.16,0,0,0,.74,2.84,6,6,0,0,0,.86.82,1.42,1.42,0,0,0,.42.94,1.55,1.55,0,0,0,2,.12A7.32,7.32,0,0,0,195.8,252c2.11-1.28,4.3-3.43,7-3.07,2.08.28,2,2,3.5,3.19,1.17.93,3.12,1.36,4.24,0a46.12,46.12,0,0,1,11.91-10.32,3,3,0,0,0,1.08-1.08c.81,1.83,3.26,3,4.78,1l.47-.61h0l0,0a42.41,42.41,0,0,0,3.59-5.56,46.81,46.81,0,0,1,5.68-6.37,32.08,32.08,0,0,0,4.32-4.62l1.59-1a3.35,3.35,0,0,0,1.48-2.35c2.49-1.79,4.3-5.75,5.52-7.83a64.2,64.2,0,0,0,5-9.81,3.14,3.14,0,0,0,1.17-.68C261.34,199.11,260.43,192.51,256.1,189.39Z" transform="translate(-9.5 -15.5)"/><path class="cls-4" d="M209.38,214.6a1.54,1.54,0,0,0-2.12,0c-4.07,3.15-6.32-1.82-10.07-.46a7.5,7.5,0,0,0-3.07,2.39,1.29,1.29,0,0,0-1.09.15,35.19,35.19,0,0,0-6.44,5.17,1.46,1.46,0,0,0-1.28.7L184,224.64a11.8,11.8,0,0,1-3-1l-.41-.26a1.47,1.47,0,0,0-.88-.24,4.84,4.84,0,0,0-2.7-2.72,1.52,1.52,0,0,0-2.26,1.29c0,.12,0,.23,0,.34a5.4,5.4,0,0,0-.9-.23,6.21,6.21,0,0,0-2.43,0A5.16,5.16,0,0,0,168,224a2.78,2.78,0,0,0-.58.06,1.6,1.6,0,0,0-.33.11h0a1.57,1.57,0,0,0-1.87,1.47,6.13,6.13,0,0,1-1,2.79c-1,1.62,1.54,3.13,2.59,1.51a8,8,0,0,0,.47-.86,1.6,1.6,0,0,0,.6.11,1.35,1.35,0,0,0,1.05-.44,1.5,1.5,0,0,0,1.06-.08,2.1,2.1,0,0,1,.24-.06,3.85,3.85,0,0,1,.07.49,1.6,1.6,0,0,0,1.8,1.49,35,35,0,0,0,0,6.87c.15,1.91,3.15,1.93,3,0a27.87,27.87,0,0,1,.15-7.69,1.28,1.28,0,0,0,1.18-.43c2.83-3.15,6.19.65,7.09,3.31a28,28,0,0,1,1.1,6.22,1.51,1.51,0,0,0,2.95.4c1-2.9,3.61-7.23,3.42-10.68.68-.6,1.38-1.34,2.09-2a1.41,1.41,0,0,0,1.68-.27l1.83-1.41c3.52-1,6.11,8.21,6.42,9.72.25,1.17.27,2.38,1.44,3.07a2.68,2.68,0,0,0,3.91-1.56c.66-1.73-.16-4.1-.15-5.86a14.62,14.62,0,0,1,.69-4.64c1.19-3.36,2.11-2.31,3.22-4.36C213.72,218.37,211.46,217,209.38,214.6Z" transform="translate(-9.5 -15.5)"/></g><g id="circleBodyColor"><path d="M53.35,103Q35.73,114.59,19.2,127.74c-3,2.4,1.25,6.62,4.25,4.24q15.92-12.64,32.93-23.82c3.21-2.11.21-7.31-3-5.18Z" transform="translate(-9.5 -15.5)"/><path class="cls-5" d="M190.46,271.13c-2.2-6-10.46-6.34-12.54,0-.27.84-1.64,5.47-3.18,10a7,7,0,0,0-6.47,1.25,6.35,6.35,0,0,0-1.94.2,28.54,28.54,0,0,0-2.58-12c-1.34-3.07-6.26-4.15-8.89-2.34a66.12,66.12,0,0,1-31.59,11.67c3.1-5.54,5.45-11.82,7.74-16.54a17.27,17.27,0,0,0,1.7-7.75,4.68,4.68,0,0,0,.78-1.2,28.21,28.21,0,0,0,2-17.37c-.77-4-6.22-6.05-9.55-3.88a56.86,56.86,0,0,0-8.64,6.9c-8.5.51-15.92,3.06-23.94,5.61-.7.22-1.41.42-2.12.62A12.2,12.2,0,0,0,94.73,240c0-.1,0-.17,0-.26,1.19-.13,3-3.83,3.74-5.23a23.68,23.68,0,0,0,2.9-10,9.82,9.82,0,0,0,.71-.86,55.9,55.9,0,0,0,7.23-14.63c1.54-4.65-3.4-9.44-8-8a33.53,33.53,0,0,0-10,5.13,15.42,15.42,0,0,0-7.48-1.46,15.27,15.27,0,0,0,3.9-7.67,4.8,4.8,0,0,0,1.74-1.34,109.61,109.61,0,0,0,13.46-21c3.36-6.93-4.43-12.35-10.21-7.87a41.77,41.77,0,0,1-14.44,7,6.53,6.53,0,0,0-2.52,1.29c-.18-.05-.36-.11-.55-.15a29,29,0,0,0-6.91-.83c.46-.56.91-1.17,1.35-1.82,1.65-2.49,3.15-5.1,4.65-7.69a5.42,5.42,0,0,0,5-4.66,38.9,38.9,0,0,1,8-17.36c4.5-5.47-1.08-14.06-7.87-10.21l-9,5.12a6.4,6.4,0,0,0-2.27,2.08A14.62,14.62,0,0,0,59.8,139l2.37-2.86a17.36,17.36,0,0,0,4-14.74,16.34,16.34,0,0,0,2.94-2.81c1.51-1.86,2.34-3.91,1.68-6.33a6.7,6.7,0,0,0-4.54-4.54,20.52,20.52,0,0,0-11.39-.32,5.87,5.87,0,0,0-3.37,2.35,13.5,13.5,0,0,0-11.24,4.47c-2.48,3-5.36,6-7.83,9.2-8,.72-14.81,7-14.74,15.43.14,18.1-.57,36.45,2.56,54.34a71.17,71.17,0,0,0,11.16,28,19.07,19.07,0,0,0,1.83,9.12,116.77,116.77,0,0,0,21.89,31.53,35.61,35.61,0,0,0,16,14.06c1.13.84,2.27,1.66,3.43,2.46,8.08,5.62,17.77,11.22,27.31,13.78a17,17,0,0,0,6.12.56,1.51,1.51,0,0,0,1.19,2.39,1.36,1.36,0,0,0,1.32-.87,15.65,15.65,0,0,0,6,3.13c7.22,2.13,14.63,3.76,21.92,5.63,6.38,1.64,12.78,3.33,19.24,1.06a27.64,27.64,0,0,0,5.32-2.61,4.33,4.33,0,0,0,.7.39c5.05,2.2,9.06,1.95,12.31.18l.58.31a11.5,11.5,0,0,0,13.24-2.07C197.13,292.84,193.54,279.51,190.46,271.13Z" transform="translate(-9.5 -15.5)"/><path class="cls-5" d="M222.85,279.08c4-4.87-3-13.48-8.69-9.4-.46.33-.89.68-1.3,1v0c-6.16,5.06-10.51,11.84-14.66,18.55-3.25,5.24,3.53,12.85,8.89,8.89s12.22-4.25,17.2-9C227.84,285.68,226.11,281.09,222.85,279.08Z" transform="translate(-9.5 -15.5)"/></g><g id="circleBody"><path d="M53.35,103Q35.73,114.59,19.2,127.74c-3,2.4,1.25,6.62,4.25,4.24q15.92-12.64,32.93-23.82c3.21-2.11.21-7.31-3-5.18Z" transform="translate(-9.5 -15.5)"/></g><g id="headColor"><path d="M95.94,192.58a313.75,313.75,0,0,0,15.47-30c1.16-2.6-1.31-5.71-4.11-4.1a112.11,112.11,0,0,1-38,13.49l3.39,4.41c10.88-14.35,21.91-30,20.61-48.93-.18-2.76-3.07-3.74-5.12-2.12a51.24,51.24,0,0,1-28.22,10.89l2.59,4.51Q70.15,125.4,77.2,109.8c1.58-3.49-3.59-6.55-5.18-3l-1.3,2.88L76.2,112l.7-3.63c.34-1.78-.81-3.94-2.9-3.8-9.21.64-18.15-1.74-27.25-2.79l2.9,2.2-.22-.6-1.37,3.39c23.5-11.66,48-21.24,71.33-33.25A199.09,199.09,0,0,0,150.64,54c5-3.91,10.3-10.82,17.24-9.88s11.83,7.1,16.05,12.28c2.44,3,6.66-1.27,4.25-4.24C181.1,43.43,169.76,33,158,40.3c-5.74,3.55-10.57,8.84-16.1,12.76a195.07,195.07,0,0,1-18,11.23C98.48,78.4,71.05,88.64,45,101.55a3,3,0,0,0-1.38,3.38l.21.61a3.16,3.16,0,0,0,2.89,2.2c9.12,1.06,18,3.43,27.25,2.79l-2.89-3.8-.69,3.63c-.59,3.09,4,5.62,5.48,2.31l1.3-2.87-5.18-3q-7,15.6-14.69,30.93c-.94,1.87.16,4.68,2.59,4.51a58.4,58.4,0,0,0,32.47-12.65l-5.13-2.12c1.22,17.82-9.57,32.42-19.79,45.9-1.77,2.34,1.15,4.78,3.39,4.41a116.8,116.8,0,0,0,39.47-14.1l-4.11-4.11a310.22,310.22,0,0,1-15.46,30c-2,3.34,3.23,6.36,5.18,3Z" transform="translate(-9.5 -15.5)"/><path d="M184.05,56.36C198,74,213.45,90.51,225.52,109.53c2.06,3.25,7.25.25,5.18-3-12.35-19.45-28.18-36.34-42.41-54.38-2.39-3-6.61,1.24-4.24,4.24Z" transform="translate(-9.5 -15.5)"/><path d="M90.44,190.05,82.07,205.3c-1.37,2.51.89,4.76,3.39,4.41a112.94,112.94,0,0,0,26.43-6.94l-3.8-2.89c-1.06,16.88-10.55,31.31-19.64,45a3,3,0,0,0,1.07,4.1c6.67,3.15,14.07-1.76,20.16-4.4q13.35-5.79,26.52-12l-4.41-1.79c1.71,7.71.18,17.37-1.64,24.88a75.14,75.14,0,0,1-10.21,23.33,3,3,0,0,0,2.59,4.51c9.58-.15,18.5-3.3,27.33-6.76,6.9-2.71,13.64-5.88,17.46-12.57l-5.49-.72a86,86,0,0,1,1.22,12.09c0,1.85,0,3.7,0,5.55,0,.53-.54,4.58.3,3.63-2.09,2.38.76,6.91,3.63,4.71a74.33,74.33,0,0,0,22.69-28.66l-5.49-.71c4.85,14,6.91,28.16,4.23,42.9-.27,1.51.4,3.35,2.1,3.69l1.73.35a3.08,3.08,0,0,0,3.39-1.38C201.5,292.89,206.93,273.51,222,269l-3.69-2.09c1.14,2.87,1.22,6.18,2.1,9.15a53.09,53.09,0,0,0,4.13,9.81c1.25,2.35,4.76,1.66,5.48-.72.89-2.92,3-10.06-2.16-10.34-5.69-.3-4.71,7.85-3.32,11.06,1.1,2.53,4.78,1.5,5.48-.72,3.84-12,6.8-24.36,11-36.28a107.93,107.93,0,0,1,7.3-16.54c2.53-4.54,5.67-10,6.58-15.2.67-3.77-5.12-5.39-5.79-1.59-1,5.49-4.41,10.74-7,15.63a120.32,120.32,0,0,0-6.87,16.11c-4.24,11.91-7.2,24.23-11,36.28l5.48-.72c-.25-.57-.05-2.27-1.06-2.13l-2.92-.77c-1.07-1-.68.51-1,1.62-.16.67-.35,1.34-.55,2l5.48-.72a44.93,44.93,0,0,1-4-10.11c-.63-2.47-.69-5.06-1.63-7.42a3.07,3.07,0,0,0-3.69-2.1c-17.24,5.16-23.21,24.77-30,39.44l3.38-1.38-1.73-.34,2.1,3.69c2.87-15.84,1-31-4.23-46.1-.75-2.18-4.34-3.26-5.48-.71a68.62,68.62,0,0,1-20.54,26.5l3.64,4.71c2.27-2.59,1.54-8.35,1.53-11.57a95.38,95.38,0,0,0-1.46-15.54c-.45-2.61-4.29-2.81-5.49-.71-3.56,6.25-10.69,8.63-17.06,11-7.31,2.77-14.65,5.19-22.54,5.32l2.59,4.52a80.19,80.19,0,0,0,11.2-26.42c1.81-8.24,3.1-18.08,1.26-26.42-.45-2-2.76-2.56-4.41-1.79q-9.66,4.5-19.41,8.83-4.44,2-8.88,3.89c-3,1.3-9,5.2-12.33,3.63l1.08,4.1c9.76-14.67,19.33-30,20.46-48,.11-1.8-2-3.59-3.8-2.89a113.35,113.35,0,0,1-26.42,6.94l3.39,4.4,8.36-15.25c1.86-3.39-3.32-6.42-5.18-3Z" transform="translate(-9.5 -15.5)"/><path d="M128.34,138.31l13.16-23.26h-5.18a96.12,96.12,0,0,0,12.25,17.63c1.17,1.34,4,1.11,4.71-.61a100.55,100.55,0,0,1,8.71-15.9l-4.72.61q11.4,11,21.71,22.95c1.62,1.89,4.26.59,5-1.32a74.38,74.38,0,0,0,4.64-18.63l-4.52,2.59a73.92,73.92,0,0,1,19.47,18.14c1.2,1.63,4.11,2.24,5.18,0A153.56,153.56,0,0,0,216,122.58l-5,1.33a54.92,54.92,0,0,0,12.18,9.49c3.43,1.93,7.51,2.87,10.67,5.15,2.17,1.57,5.09-1,4.41-3.39a11.13,11.13,0,0,0-4.83-6.41l-3,5.18,3.47,2.37c2.56,1.75,5.53-1.63,4.1-4.11-2.11-3.67-2.08-8.31-3-12.4a90.43,90.43,0,0,0-3.59-12.07c-1.33-3.6-7.13-2-5.79,1.59a87.72,87.72,0,0,1,3.95,13.84c.81,4.2,1,8.3,3.21,12.07l4.11-4.1-3.47-2.37c-3.22-2.2-6.11,3-3,5.18l2.07,2.83,4.41-3.39c-2.8-2-6.16-2.78-9.23-4.37a49,49,0,0,1-12.41-9.33,3,3,0,0,0-5,1.32,141.36,141.36,0,0,1-6.6,16.49h5.18a81.88,81.88,0,0,0-21.62-20.29c-2.11-1.36-4.26.5-4.51,2.59a69,69,0,0,1-4.42,17l5-1.32q-10.32-12-21.7-23a3,3,0,0,0-4.71.6A101,101,0,0,0,148.1,129l4.71-.61A88.84,88.84,0,0,1,141.5,112a3,3,0,0,0-5.18,0l-13.16,23.27c-1.9,3.36,3.28,6.39,5.18,3Z" transform="translate(-9.5 -15.5)"/><path class="cls-5" d="M232.92,123.88c-1.6-4.59-3.29-9.14-5.14-13.64-1.31-3.21-2.44-6.88-4.89-9.46A11.26,11.26,0,0,0,218.54,98a7.07,7.07,0,0,0-.75-2L210.7,83.12c-2.22-4-4.23-8.42-7.43-11.78-2.88-3-6.64-4.9-10-7.35A50.12,50.12,0,0,1,184,54.78a5,5,0,0,0-2-1.5,3.71,3.71,0,0,0-.23-.9C177.73,42.2,166.27,40,157.15,45.1c-4.91,2.73-8.8,7-13.5,10.06-5.43,3.53-11.27,6.45-17,9.55C104.8,76.63,83,90.24,58.57,96.31c-8.12,2-4.68,14.56,3.45,12.54,3.47-.87,6.88-1.89,10.25-3a47.41,47.41,0,0,0-2.46,6.44q-3.41,9-6.8,17.92c-2,5.31,5,10.31,9.55,7.35a55.18,55.18,0,0,1,14.07-6.61,6.94,6.94,0,0,0,2.41.68,11.61,11.61,0,0,0-2.73,9A93.48,93.48,0,0,1,76.42,163c-1,.68-2,1.37-3,2.09-6.8,5-1.11,14.66,6.56,11.22a72.92,72.92,0,0,0,10.5-5.83,56.1,56.1,0,0,0,5.24-3.74c2.46-1.22,5-2.35,7.51-3.37-1.79,9.48-8.91,18.7-12.24,27.13a21.87,21.87,0,0,0-1.28,4.66c-.59.5-1.18,1-1.75,1.43-5.86,4.58,1.68,14,7.88,10.2l1.5-.9c3.87.28,7.28-2.18,10-5.09a17.64,17.64,0,0,0,1.84,1.46,5.86,5.86,0,0,0,4.56.74c-1.56,3.85-3.55,7.57-5.15,11-3.63,7.71-7.68,15.21-12.05,22.52a5.88,5.88,0,0,0-.34,5.87,1.45,1.45,0,0,0-.41,1v.29a1.51,1.51,0,0,0,1.5,1.5,1.6,1.6,0,0,0,1-.41c2.81,2,7.1,2.09,9.47-1.7a20.72,20.72,0,0,1,15.75-9.82c6.3-.55,12.55-.74,14.73-7.94,1.67-5.5-4.85-9.7-9.17-7.76a14.38,14.38,0,0,0-.39-1.71q-.15-4.62-.15-9.25a6.57,6.57,0,0,0-1.06-3.77,31.32,31.32,0,0,0,1.75-12.24,7,7,0,0,0-6-6.5,36.78,36.78,0,0,0,1.57-4.79c.88-3.5,1.49-7,2.36-10.46a1.54,1.54,0,0,0,.67.15,1.5,1.5,0,0,0,.11-3,33.75,33.75,0,0,1,2.61-6.31c3.11-5.65,5.51-11.27,2.14-17.37,2.25-2.43,4-5.56,5.89-8.22s4.54-5.57,5.65-8.69a8,8,0,0,0,.48-2.18c.28.36.57.72.88,1.08,3,3.48,7.95,1.78,10.21-1.31,3-4.06,4.95-5.89,9.7-3a31.43,31.43,0,0,1,6.6,5.36l-.24,2.59c-.69,7.46,10.81,8.58,12.77,1.73.22-.78.46-1.54.71-2.31a6.5,6.5,0,0,0,.92-2.53c.18-.45.38-.9.59-1.35s.48-.94.73-1.4a11.68,11.68,0,0,0,1.43,1.48,11.41,11.41,0,0,0,5.92,2.59c3.5.59,0,.1,0,.19.53,1.55,2.23,3.24,3.14,4.56,2.44,3.56,9.11,4.86,11.22,0a28.72,28.72,0,0,0,2.24-8.18h0a5.85,5.85,0,0,0,8,2.54l.75,2.08C223.12,135.18,235.68,131.81,232.92,123.88Z" transform="translate(-9.5 -15.5)"/><path class="cls-5" d="M243.68,225.42h-.57a2.55,2.55,0,0,0-2.49,2.3l-.09.09a79.71,79.71,0,0,0-11.47,16.67,6.89,6.89,0,0,0-3.2.93c-.19-.7-.4-1.39-.64-2.08-.47-1.35-2.29-2.55-3.67-1.49a7.51,7.51,0,0,0-2.81,3.85,2.63,2.63,0,0,0-1.78,1.16,10.89,10.89,0,0,1-6.92,4.46,2.27,2.27,0,0,0-1.32.76,3.62,3.62,0,0,0-2.35.46,4.37,4.37,0,0,0-.62.44,8.82,8.82,0,0,0-2-1.83,2.17,2.17,0,0,0-2-1l-.48.05a6.56,6.56,0,0,0-3.74.65,2.14,2.14,0,0,0-1.19,1.91,7.87,7.87,0,0,0-5.58.38,6.82,6.82,0,0,0-.66.34c-1.16-1-2.28-2.07-3.39-3-2.94-2.49-8.23-2.73-10.2,1.31-.43.88-.89,1.74-1.33,2.61a4.65,4.65,0,0,0-2,.49,2.82,2.82,0,0,0-1,1.17,12.06,12.06,0,0,0-1.58-.73,32.94,32.94,0,0,0-3.39-.58,5.54,5.54,0,0,0-2.11-5.06,2.5,2.5,0,0,0-2.07-3.84,2.32,2.32,0,0,0-2.38,2,6.94,6.94,0,0,0-3.37.58c-2.75,1.26-5.54,2.39-8.38,3.43A7.39,7.39,0,0,0,147,253c-.42-2.34-.87-4.68-1.23-7a68.89,68.89,0,0,0-.9-11.22c-1.23-7.5-12.5-5.28-12.77,1.73a41.29,41.29,0,0,0,.84,9.1,50.08,50.08,0,0,1-6.51,24.77c-4.1,7.3,7.13,13.87,11.23,6.56.37-.67.73-1.36,1.08-2a5.49,5.49,0,0,0,4.51.31,44.51,44.51,0,0,0,15.54-9.08l.85.5a10.23,10.23,0,0,0,4.29,1.29l1.18-.06.77-.1c.36,1.48-.5,3.5-.86,4.87-1.92,7.25,7.91,11.15,11.88,5,2.55-3.94,4.92-8,7.15-12.09a12.28,12.28,0,0,0,5.59,2.69h0a6.6,6.6,0,0,0,.58.6,22,22,0,0,0,1.3,10,56.72,56.72,0,0,1-.21,6.23c-.57,6.52,9.16,8.72,12.11,3.28,2.79-5.12,5.27-10.63,8.62-15.41.65-.94,3.57-4.65,4.19-4.47s1.14,3.23,1.29,4.19c.8,4.91,7.74,6.13,10.87,2.87,6.49-6.78,7.37-15.74,7.3-24.71a7.07,7.07,0,0,0-.06-.94q4.69-9.36,8.77-19a2.29,2.29,0,0,0,.17-.62,2.48,2.48,0,0,0,1.56-2.3A2.55,2.55,0,0,0,243.68,225.42Z" transform="translate(-9.5 -15.5)"/><path class="cls-3" d="M132,214.63a1.52,1.52,0,0,0-1.5,1.5v1.48a1.51,1.51,0,0,0,1.5,1.5,1.53,1.53,0,0,0,1.5-1.5v-1.48A1.51,1.51,0,0,0,132,214.63Z" transform="translate(-9.5 -15.5)"/><path class="cls-6" d="M192.27,199.74a1.76,1.76,0,0,0-1.75-.76,10.67,10.67,0,0,1-4.54-.21,2.18,2.18,0,0,0-2.27-.7,1.43,1.43,0,0,0-1.57,1.44v.13c0,.06,0,.1-.06.16a1.8,1.8,0,0,0,0,.89l0,2.89a1,1,0,0,0,0,.25,1.7,1.7,0,0,0,.5,1.48c-.43,2.22-.6,6.17.88,7.87,1.74,2,3.53.11,4.37-1.57.06-.11.11-.23.16-.34a9.62,9.62,0,0,0,3.2-6.83c.52-.89,1.07-1.77,1.64-2.63A1.47,1.47,0,0,0,192.27,199.74Z" transform="translate(-9.5 -15.5)"/><path class="cls-6" d="M208.68,199.13c-1.68-3.56-6.4,1.53-8.88.27-1.71-.87-3.23,1.72-1.51,2.59l.06,0a1.47,1.47,0,0,0-.36,1.39c.64,3,1.46,7.76,4.09,9.73,2.47,1.87,4.52-.22,5.21-2.61a50.16,50.16,0,0,0,1.32-6.74C208.81,202.36,209.31,200.48,208.68,199.13Z" transform="translate(-9.5 -15.5)"/><path class="cls-6" d="M225,188.31a2.86,2.86,0,0,0-2.6,1.52,15,15,0,0,1-2.06,2.08c-2.41,1.74-4.89,3.4-7.33,5.1-1.57,1.1-.08,3.7,1.51,2.59l.15-.1a3,3,0,0,0,.2,2.52c.9,1.51,2.53,1.28,3.95.76a5.71,5.71,0,0,0,3.71-3.61c.25-.67,1.51-6.06,2.2-7.5a1.67,1.67,0,0,1,.67-.42A1.5,1.5,0,0,0,225,188.31Z" transform="translate(-9.5 -15.5)"/><path class="cls-6" d="M175.52,195.79c-1.75-2.72-6.68-3.88-9.19-4.89-1.47-.59-2.42,1.52-1.46,2.51l.45.47a8.61,8.61,0,0,0,.92,5.28,1.23,1.23,0,0,0,.67,1.67l1,.42a4.38,4.38,0,0,0,1,.63,3.58,3.58,0,0,0,2.37.24,5.19,5.19,0,0,0,1.69-.21,4.36,4.36,0,0,0,3.16-3.46,3.38,3.38,0,0,0,0-.45A1.46,1.46,0,0,0,175.52,195.79Z" transform="translate(-9.5 -15.5)"/><path class="cls-6" d="M161.49,187.44c.06-1.33-1.35-2.42-2.12-3.31L154,178a1.49,1.49,0,0,0-2.49.68,1.39,1.39,0,0,0-.58.55,6.13,6.13,0,0,0-.73,4.69,1.23,1.23,0,0,0,.09.29c0,.72,0,1.44,0,2.06a26.16,26.16,0,0,0,1.33,7.8,1.52,1.52,0,0,0,2.74.36c.12-.21.24-.4.37-.6a1.08,1.08,0,0,0,.4.11,1.3,1.3,0,0,0,2-.07l0-.05a1.48,1.48,0,0,0,.72-.2,3.47,3.47,0,0,0,1.85-2.26,1.39,1.39,0,0,0,.48-.81,3.83,3.83,0,0,0,.09-1.37A2,2,0,0,0,161.49,187.44Z" transform="translate(-9.5 -15.5)"/><path class="cls-6" d="M152.13,174.92a26.62,26.62,0,0,0-1.59-4.84,1.17,1.17,0,0,0-1-.72c.05-.5.12-.81.21-.81a1.5,1.5,0,0,0,0-3c-1.94,0-3,1.43-3.21,3.23a71.33,71.33,0,0,0-.08,8c0,1.39,2.18,2.18,2.79.76.16-.37.29-.75.43-1.12A1.5,1.5,0,0,0,152.13,174.92Z" transform="translate(-9.5 -15.5)"/><path class="cls-6" d="M143.8,207.7c-.35-1.28-.7-2.57-1.06-3.86a1.38,1.38,0,0,0-.58-.82c.12-1.89-2.85-1.87-3,0a8.15,8.15,0,0,0,2.14,6.11A1.51,1.51,0,0,0,143.8,207.7Z" transform="translate(-9.5 -15.5)"/><path class="cls-6" d="M148.72,214a5.44,5.44,0,0,0-.91.32h-.11c-.3,0-.6,0-.89,0a1.57,1.57,0,0,0-1.36,2.1,4.75,4.75,0,0,0-.55,2c-.13,2.44,1.35,4.38,2.82,6.16a2.42,2.42,0,0,0,2.48-.46,7.58,7.58,0,0,0,2.09-5.65C152.94,215.85,152.23,213.09,148.72,214Z" transform="translate(-9.5 -15.5)"/><path class="cls-6" d="M163.05,228.16c-.17-1.58-.23-3.63-1.44-4.84a2.85,2.85,0,0,0-3.94.09,68.12,68.12,0,0,0-5.27,5.47,1.52,1.52,0,0,0,0,2.12,3,3,0,0,0,2.81.76,1.35,1.35,0,0,0,.77-.39c.82,2.12,5.23,6.16,6.88,3C163.72,232.77,163.23,229.92,163.05,228.16Z" transform="translate(-9.5 -15.5)"/><path class="cls-6" d="M169.75,231.66a1.5,1.5,0,0,0-2.35-.3,8.23,8.23,0,0,0-2.26,5.82,1.55,1.55,0,0,0,2.74.9,1.61,1.61,0,0,0,2.38-.77A6.68,6.68,0,0,0,169.75,231.66Z" transform="translate(-9.5 -15.5)"/><path class="cls-6" d="M182.78,234.15a4.87,4.87,0,0,0-.87-2.59,2.81,2.81,0,0,0-4.61.59,8.27,8.27,0,0,0-.69,3,7.81,7.81,0,0,1-1.45,3.29c-1.12,1.55,1.4,3,2.54,1.57a1.24,1.24,0,0,0,1.75.21.74.74,0,0,1,.31-.14,1.28,1.28,0,0,0,.92,0l.14-.07a1.52,1.52,0,0,0,.6-.1,1.59,1.59,0,0,0,.33-.09A2.36,2.36,0,0,0,183.1,238,15.87,15.87,0,0,0,182.78,234.15Z" transform="translate(-9.5 -15.5)"/><path class="cls-6" d="M200.86,231.83c-.4-1.87-1.34-3.76-3.48-3.93a3.5,3.5,0,0,0-1.44.19,5,5,0,0,0-4.11,5,24.81,24.81,0,0,0-2.63,5.8c-.5,1.7,1.87,2.5,2.7,1.21a1.39,1.39,0,0,0,.66.11c1.72-.12,3.43-.25,5.15-.41a5.68,5.68,0,0,0,2.84-.68C202.65,237.6,201.29,233.82,200.86,231.83Zm-3.07,1.23a2.24,2.24,0,0,0-.36-.14,1.67,1.67,0,0,0-.44-1c-.05-.11-.1-.23-.16-.34a2.48,2.48,0,0,1,.74-.29,4.13,4.13,0,0,1,.5,1.78Z" transform="translate(-9.5 -15.5)"/><path class="cls-6" d="M218.83,229.06a9,9,0,0,1-1.83-2.54,13,13,0,0,0-.81-2.06c-1.59-2.52-4.2-1.34-5.7.6a7.74,7.74,0,0,0-1.62,4c-.25,2.43.86,4.61-1,6.65-1.3,1.42.81,3.55,2.12,2.12a8,8,0,0,0,1.7-2.74,6.48,6.48,0,0,0,3.55-.82c1.26-.5,3.25-1.13,4.09-2.27S219.59,230,218.83,229.06Z" transform="translate(-9.5 -15.5)"/><path class="cls-6" d="M230.63,222.25c-.18-1.52-1.7-3.07-2.86-4.27l-.11-.15a6.17,6.17,0,0,0-1.37-1.26,2.74,2.74,0,0,0-4.21,1.64,13.09,13.09,0,0,0-.25,3.9c0,1.66,0,3.32,0,5a1.52,1.52,0,0,0,2.49,1.11,1.42,1.42,0,0,0,.91-.17,6.89,6.89,0,0,0,1.58-1.32,1.55,1.55,0,0,0,1.32-.68c.1-.16.19-.31.27-.47C229.53,224.7,230.8,223.71,230.63,222.25Z" transform="translate(-9.5 -15.5)"/></g><g id="head"><path d="M95.94,192.58a313.75,313.75,0,0,0,15.47-30c1.16-2.6-1.31-5.71-4.11-4.1a112.11,112.11,0,0,1-38,13.49l3.39,4.41c10.88-14.35,21.91-30,20.61-48.93-.18-2.76-3.07-3.74-5.12-2.12a51.24,51.24,0,0,1-28.22,10.89l2.59,4.51Q70.15,125.4,77.2,109.8c1.58-3.49-3.59-6.55-5.18-3l-1.3,2.88L76.2,112l.7-3.63c.34-1.78-.81-3.94-2.9-3.8-9.21.64-18.15-1.74-27.25-2.79l2.9,2.2-.22-.6-1.37,3.39c23.5-11.66,48-21.24,71.33-33.25A199.09,199.09,0,0,0,150.64,54c5-3.91,10.3-10.82,17.24-9.88s11.83,7.1,16.05,12.28c2.44,3,6.66-1.27,4.25-4.24C181.1,43.43,169.76,33,158,40.3c-5.74,3.55-10.57,8.84-16.1,12.76a195.07,195.07,0,0,1-18,11.23C98.48,78.4,71.05,88.64,45,101.55a3,3,0,0,0-1.38,3.38l.21.61a3.16,3.16,0,0,0,2.89,2.2c9.12,1.06,18,3.43,27.25,2.79l-2.89-3.8-.69,3.63c-.59,3.09,4,5.62,5.48,2.31l1.3-2.87-5.18-3q-7,15.6-14.69,30.93c-.94,1.87.16,4.68,2.59,4.51a58.4,58.4,0,0,0,32.47-12.65l-5.13-2.12c1.22,17.82-9.57,32.42-19.79,45.9-1.77,2.34,1.15,4.78,3.39,4.41a116.8,116.8,0,0,0,39.47-14.1l-4.11-4.11a310.22,310.22,0,0,1-15.46,30c-2,3.34,3.23,6.36,5.18,3Z" transform="translate(-9.5 -15.5)"/><path d="M184.05,56.36C198,74,213.45,90.51,225.52,109.53c2.06,3.25,7.25.25,5.18-3-12.35-19.45-28.18-36.34-42.41-54.38-2.39-3-6.61,1.24-4.24,4.24Z" transform="translate(-9.5 -15.5)"/><path d="M90.44,190.05,82.07,205.3c-1.37,2.51.89,4.76,3.39,4.41a112.94,112.94,0,0,0,26.43-6.94l-3.8-2.89c-1.06,16.88-10.55,31.31-19.64,45a3,3,0,0,0,1.07,4.1c6.67,3.15,14.07-1.76,20.16-4.4q13.35-5.79,26.52-12l-4.41-1.79c1.71,7.71.18,17.37-1.64,24.88a75.14,75.14,0,0,1-10.21,23.33,3,3,0,0,0,2.59,4.51c9.58-.15,18.5-3.3,27.33-6.76,6.9-2.71,13.64-5.88,17.46-12.57l-5.49-.72a86,86,0,0,1,1.22,12.09c0,1.85,0,3.7,0,5.55,0,.53-.54,4.58.3,3.63-2.09,2.38.76,6.91,3.63,4.71a74.33,74.33,0,0,0,22.69-28.66l-5.49-.71c4.85,14,6.91,28.16,4.23,42.9-.27,1.51.4,3.35,2.1,3.69l1.73.35a3.08,3.08,0,0,0,3.39-1.38C201.5,292.89,206.93,273.51,222,269l-3.69-2.09c1.14,2.87,1.22,6.18,2.1,9.15a53.09,53.09,0,0,0,4.13,9.81c1.25,2.35,4.76,1.66,5.48-.72.89-2.92,3-10.06-2.16-10.34-5.69-.3-4.71,7.85-3.32,11.06,1.1,2.53,4.78,1.5,5.48-.72,3.84-12,6.8-24.36,11-36.28a107.93,107.93,0,0,1,7.3-16.54c2.53-4.54,5.67-10,6.58-15.2.67-3.77-5.12-5.39-5.79-1.59-1,5.49-4.41,10.74-7,15.63a120.32,120.32,0,0,0-6.87,16.11c-4.24,11.91-7.2,24.23-11,36.28l5.48-.72c-.25-.57-.05-2.27-1.06-2.13l-2.92-.77c-1.07-1-.68.51-1,1.62-.16.67-.35,1.34-.55,2l5.48-.72a44.93,44.93,0,0,1-4-10.11c-.63-2.47-.69-5.06-1.63-7.42a3.07,3.07,0,0,0-3.69-2.1c-17.24,5.16-23.21,24.77-30,39.44l3.38-1.38-1.73-.34,2.1,3.69c2.87-15.84,1-31-4.23-46.1-.75-2.18-4.34-3.26-5.48-.71a68.62,68.62,0,0,1-20.54,26.5l3.64,4.71c2.27-2.59,1.54-8.35,1.53-11.57a95.38,95.38,0,0,0-1.46-15.54c-.45-2.61-4.29-2.81-5.49-.71-3.56,6.25-10.69,8.63-17.06,11-7.31,2.77-14.65,5.19-22.54,5.32l2.59,4.52a80.19,80.19,0,0,0,11.2-26.42c1.81-8.24,3.1-18.08,1.26-26.42-.45-2-2.76-2.56-4.41-1.79q-9.66,4.5-19.41,8.83-4.44,2-8.88,3.89c-3,1.3-9,5.2-12.33,3.63l1.08,4.1c9.76-14.67,19.33-30,20.46-48,.11-1.8-2-3.59-3.8-2.89a113.35,113.35,0,0,1-26.42,6.94l3.39,4.4,8.36-15.25c1.86-3.39-3.32-6.42-5.18-3Z" transform="translate(-9.5 -15.5)"/><path d="M128.34,138.31l13.16-23.26h-5.18a96.12,96.12,0,0,0,12.25,17.63c1.17,1.34,4,1.11,4.71-.61a100.55,100.55,0,0,1,8.71-15.9l-4.72.61q11.4,11,21.71,22.95c1.62,1.89,4.26.59,5-1.32a74.38,74.38,0,0,0,4.64-18.63l-4.52,2.59a73.92,73.92,0,0,1,19.47,18.14c1.2,1.63,4.11,2.24,5.18,0A153.56,153.56,0,0,0,216,122.58l-5,1.33a54.92,54.92,0,0,0,12.18,9.49c3.43,1.93,7.51,2.87,10.67,5.15,2.17,1.57,5.09-1,4.41-3.39a11.13,11.13,0,0,0-4.83-6.41l-3,5.18,3.47,2.37c2.56,1.75,5.53-1.63,4.1-4.11-2.11-3.67-2.08-8.31-3-12.4a90.43,90.43,0,0,0-3.59-12.07c-1.33-3.6-7.13-2-5.79,1.59a87.72,87.72,0,0,1,3.95,13.84c.81,4.2,1,8.3,3.21,12.07l4.11-4.1-3.47-2.37c-3.22-2.2-6.11,3-3,5.18l2.07,2.83,4.41-3.39c-2.8-2-6.16-2.78-9.23-4.37a49,49,0,0,1-12.41-9.33,3,3,0,0,0-5,1.32,141.36,141.36,0,0,1-6.6,16.49h5.18a81.88,81.88,0,0,0-21.62-20.29c-2.11-1.36-4.26.5-4.51,2.59a69,69,0,0,1-4.42,17l5-1.32q-10.32-12-21.7-23a3,3,0,0,0-4.71.6A101,101,0,0,0,148.1,129l4.71-.61A88.84,88.84,0,0,1,141.5,112a3,3,0,0,0-5.18,0l-13.16,23.27c-1.9,3.36,3.28,6.39,5.18,3Z" transform="translate(-9.5 -15.5)"/></g><g id="face"><path d="M201.75,155a7.61,7.61,0,0,0-1,1.23,2.33,2.33,0,0,0,0,2,2.37,2.37,0,0,0,3,1.63,2.49,2.49,0,0,0,1.61-1.44c.24-.93-.26.26-.23.29l.31-.4a2.11,2.11,0,0,0,.26-1,2.83,2.83,0,0,0-2.1-2.6,1.51,1.51,0,0,0-1.84,1,1.53,1.53,0,0,0,1.05,1.84c-.14-.08-.14-.08,0,0-.12-.1-.11-.09,0,0-.08-.12-.11-.44-.14-.21l.2-.76c-.07.14-.06.14.05,0a2.88,2.88,0,0,0-.3.39,1.69,1.69,0,0,0-.22.95l.44-1.06-.12.08a.82.82,0,0,1,.61.09c.27.31.33.35.19.14.05.12.05.13,0,0a1.72,1.72,0,0,1-.07-.21c-.31.72-.33.91-.07.58a6.41,6.41,0,0,0,.49-.55,1.5,1.5,0,0,0-2.12-2.12Z" transform="translate(-9.5 -15.5)"/><path d="M184.63,156.77c-.27,0-.68-.27-.39.1a1.47,1.47,0,0,1-.15-.7c0-.36.14-.95.51-.93a.83.83,0,0,1,.62.68,1,1,0,0,1-.68,1l1.69.69-.32-.72c-.17-.38-.06-.6-.2,0l-.39.66.11-.09a1.5,1.5,0,0,0,0-2.12,1.54,1.54,0,0,0-2.12,0c-1.25,1-.15,2.73.33,3.83a1.52,1.52,0,0,0,1.7.69,4.07,4.07,0,0,0,2.88-4,3.79,3.79,0,0,0-3.62-3.52c-4.1,0-4.88,6.74-.77,7.41a1.55,1.55,0,0,0,1.85-1,1.51,1.51,0,0,0-1.05-1.85Z" transform="translate(-9.5 -15.5)"/><path d="M183.19,159.54l.85.32a1.52,1.52,0,0,0,1.85-1.05,1.55,1.55,0,0,0-1-1.85l-.85-.31a1.51,1.51,0,0,0-1.85,1,1.53,1.53,0,0,0,1.05,1.84Z" transform="translate(-9.5 -15.5)"/><path d="M186.37,172.54c3,3.58,7.07,6.7,12,6.45,3.77-.19,8.19-2.48,9.68-6,.74-1.77-2.16-2.55-2.9-.79-1.22,2.9-6.22,4.13-8.92,3.61-3.29-.63-5.66-2.9-7.75-5.37-1.25-1.47-3.37.66-2.13,2.12Z" transform="translate(-9.5 -15.5)"/><path d="M190.13,173.28c.91-.3,1.5,1.05,1.85,1.68a1.5,1.5,0,0,0,2.59-1.51c-1.06-1.89-2.83-3.85-5.24-3.06-1.83.59-1,3.49.8,2.89Z" transform="translate(-9.5 -15.5)"/><path d="M204.46,171.6A4.81,4.81,0,0,0,201,173a1.5,1.5,0,0,0,2.12,2.13,1.7,1.7,0,0,1,1.33-.57,1.51,1.51,0,0,0,1.5-1.5,1.54,1.54,0,0,0-1.5-1.5Z" transform="translate(-9.5 -15.5)"/><path d="M153.11,135a52.71,52.71,0,0,0,6.74-2.24c1.76-.72,1-3.63-.79-2.89a51.78,51.78,0,0,1-6.75,2.23c-1.86.48-1.07,3.38.8,2.9Z" transform="translate(-9.5 -15.5)"/><path d="M156.25,131.91c-3.74,7.23-7.65,13.16-8.47,21.52a38.65,38.65,0,0,0,4.64,22.19c7.13,13.07,21,22.26,35.62,24.37s32.15-3.22,40.59-16c4.23-6.41,5.7-15.07,6.27-22.59a21.61,21.61,0,0,0-1.9-11.13,32,32,0,0,0-1.69-3c-.21-1.16-.81-1.68-1.8-1.55.25,1.61,4.08,2.74,5.31,3.36,1.72.87,3.24-1.72,1.51-2.59-2.65-1.35-5.05-2.81-8-3.18a1.51,1.51,0,0,0-1.3.74l-.23.31a1.44,1.44,0,0,0,0,1.51c2.49,3.7,4.82,7.38,5.16,12,.27,3.64-.49,7.38-1.16,10.94-1.24,6.69-3.23,13-8.25,17.84-10.14,9.83-25.44,13-38.91,9.49-12.34-3.2-23.69-11.77-29.34-23.31a35.77,35.77,0,0,1-3.52-19.31c.79-7.73,4.6-13.33,8.06-20,.89-1.71-1.7-3.23-2.59-1.52Z" transform="translate(-9.5 -15.5)"/><path d="M153.65,136.26c-3.05,5.27-6.91,9.79-10.36,14.77-3,4.32-4.7,9.5-6,14.54A80.61,80.61,0,0,0,136,199.75c.33,1.9,3.22,1.09,2.89-.8a77.17,77.17,0,0,1,1.74-34.29,39.84,39.84,0,0,1,6.47-13.73,120.62,120.62,0,0,0,9.14-13.16,1.5,1.5,0,0,0-2.59-1.51Z" transform="translate(-9.5 -15.5)"/><path d="M135.68,200c2.23,10.43,6.35,23.81,14.7,31,8,6.9,18.5,10.59,28.88,11.65,12.37,1.26,25.2-1.28,36.58-6.15,9-3.88,17-10.37,19.36-20.33.44-1.88-2.46-2.68-2.89-.8-2.42,10.43-11.6,16.27-21.07,19.74-10.14,3.71-21.17,5.7-32,4.54-10-1.08-20.59-4.76-28-11.84-3.78-3.65-5.67-8.18-7.61-13a94,94,0,0,1-5.12-15.66c-.41-1.88-3.3-1.08-2.89.8Z" transform="translate(-9.5 -15.5)"/><path d="M234.87,214.51c-4.59-3.84-7.54-6.92-7.72-13.3a53.51,53.51,0,0,1,2.2-16.35,1.5,1.5,0,0,0-2.89-.8,52.68,52.68,0,0,0-2.09,20.61c.67,5.55,4.27,8.51,8.38,12,1.47,1.23,3.61-.88,2.12-2.12Z" transform="translate(-9.5 -15.5)"/><path d="M147.79,159.92c-1.42,2.13-2,4.83-2.67,7.28s-1.83,5.68-1.47,8.3a3.53,3.53,0,0,0,2.61,3.11c2.42.54,2.51-2.17,4.38-2.22s1.94-3,0-3a4,4,0,0,0-2.65.79c-.25.19-.76,1.1-1,1.18-.58.19-.19-2-.07-2.75.53-3.49,1.47-8.22,3.44-11.18,1.08-1.61-1.52-3.11-2.59-1.51Z" transform="translate(-9.5 -15.5)"/><path d="M151.23,174.65c-1,4-3,7.5-3.28,11.7-.17,3,.14,7.38,2.6,9.43,5.61,4.67,11-5.08,13.5-8.67,1.09-1.6-1.51-3.11-2.59-1.52-1.21,1.78-2.42,3.59-3.75,5.28-1.16,1.48-2.43,3.39-4.5,2.54-1.58-.64-1.75-1.67-2.08-3.37-1-5.38,1.77-9.63,3-14.59.46-1.88-2.43-2.68-2.9-.8Z" transform="translate(-9.5 -15.5)"/><path d="M163.78,189.27c0,3.54-.45,7.37,0,10.88a5.93,5.93,0,0,0,3.62,4.7c5.31,2.41,9.15-3.6,11.22-7.58.9-1.71-1.69-3.23-2.59-1.52a25.94,25.94,0,0,1-2.53,4.08c-1.62,2.06-5.5,4-6.62.27-.46-1.52-.16-3.43-.15-5v-5.84a1.5,1.5,0,0,0-3,0Z" transform="translate(-9.5 -15.5)"/><path d="M179.43,197.93a62.11,62.11,0,0,0,1.15,12.69c.47,2.36,1.22,5.41,3.89,6.16s4.9-1.45,6.06-3.65a73,73,0,0,0,4.86-12.5c.57-1.85-2.33-2.65-2.89-.8-.78,2.53-1.69,5-2.7,7.44-.66,1.62-3.14,9.19-5.63,5.18-1.1-1.77-1.18-5.12-1.4-7.11a63.27,63.27,0,0,1-.34-7.41,1.5,1.5,0,0,0-3,0Z" transform="translate(-9.5 -15.5)"/><path d="M194.77,200.51c.3,5.21,2.45,17.33,9.9,16.84s6.4-14.75,6.5-19.42c0-1.93-3-1.93-3,0,0,2.35-.14,4.7-.33,7-.18,2.17-.06,5.81-1.52,7.58-1.29,1.55-4.2,1-5.36-.74a15.93,15.93,0,0,1-1.42-2.94,26.3,26.3,0,0,1-1.77-8.36c-.12-1.92-3.12-1.93-3,0Z" transform="translate(-9.5 -15.5)"/><path d="M212.21,196.6c.46,4.13,2.89,12.56,8.58,8.67,5.07-3.47,5.75-11.11,6.44-16.63.24-1.91-2.76-1.89-3,0-.43,3.47-.88,7-2.31,10.26-.81,1.8-1.5,3.42-3.59,3.41-1.74,0-1.63-.39-2.21-1.89a14.9,14.9,0,0,1-.91-3.82c-.21-1.9-3.21-1.92-3,0Z" transform="translate(-9.5 -15.5)"/><path d="M231.87,220.41a9.16,9.16,0,0,0-4.17-6c-1.66-1-4.56-2-6.4-.87-2.1,1.33-2.2,5.3-2.23,7.48a20.63,20.63,0,0,0,2.3,9.44c.86,1.73,3.45.21,2.59-1.51-1.69-3.41-2.58-7.76-1.45-11.5,1.21-4,6,1.62,6.47,3.79.4,1.89,3.29,1.09,2.89-.8Z" transform="translate(-9.5 -15.5)"/><path d="M221.31,230.32c-.86-3.61-5.39-12-10.27-9.85-2.09.93-3,3.94-3.51,6a35,35,0,0,0-.34,10.47c.14,1.91,3.14,1.93,3,0-.26-3.68-1-8.8,1-12.12,2.57-4.24,6.64,4,7.19,6.32.44,1.88,3.34,1.08,2.89-.8Z" transform="translate(-9.5 -15.5)"/><path d="M204.17,237.44c.3-5.29-1.22-13.73-8.58-12.49-2.56.43-4.31,3.21-5.6,5.24a24.7,24.7,0,0,0-3.58,9.85c-.27,1.89,2.62,2.7,2.89.79A22.22,22.22,0,0,1,194,229.77c2.2-2.7,5.43-2,6.72,1.26.8,2,.59,4.31.47,6.41-.1,1.93,2.9,1.92,3,0Z" transform="translate(-9.5 -15.5)"/><path d="M185.07,240.41c.63-4.21,0-11.51-5.2-12.66A4.24,4.24,0,0,0,175,230.2a14.3,14.3,0,0,0-.75,3.49,23,23,0,0,1-1.4,4.81c-.73,1.79,2.18,2.56,2.89.79a22.79,22.79,0,0,0,1.4-4.8c.23-1.31.08-3.71,1.81-3.81,3.45-.2,3.58,6.85,3.27,8.93-.28,1.89,2.61,2.7,2.89.8Z" transform="translate(-9.5 -15.5)"/><path d="M172.79,238.08c0-2.91.47-8.11-2.68-9.71a3.27,3.27,0,0,0-3.93,1,58.25,58.25,0,0,0-3.66,5c-1.13,1.57,1.48,3.07,2.6,1.52l2-2.84c.48-.67,1.47-2.75,2.07-1.26.78,1.9.53,4.24.56,6.25s3,1.93,3,0Z" transform="translate(-9.5 -15.5)"/><path d="M165.37,235.28c-.1-3.3-.06-6.65-.32-9.94-.15-1.88-.61-3.92-2.33-5-4.81-3-9.05,4.32-11.41,7.28-1.2,1.49.91,3.63,2.12,2.12,1.06-1.32,2.11-2.65,3.18-4,1.29-1.61,3.93-4.42,5.3-1.47.58,1.23.23,3.49.27,4.82l.19,6.15c.06,1.93,3.06,1.93,3,0Z" transform="translate(-9.5 -15.5)"/><path d="M145.68,217.34c1.12-1.66,2.16-3.33,4.24-3.38,1.63,0,1.94.58,2.2,2.15a6.05,6.05,0,0,1-.28,3c-.85,2.43-2.9,4.13-3.57,6.68a1.5,1.5,0,0,0,2.89.8c.74-2.8,3.16-4.7,3.83-7.58a8.14,8.14,0,0,0-1.12-6.57c-3.67-4.87-8.45-.08-10.78,3.38-1.08,1.6,1.51,3.11,2.59,1.51Z" transform="translate(-9.5 -15.5)"/><path d="M144,213.41c.16-3.17,2.56-6,1.4-9.25-.94-2.64-4.09-4.24-6.2-5.83-1.54-1.15-3,1.45-1.51,2.59,2.2,1.66,5.51,3.14,4.88,6.35-.42,2.12-1.46,3.93-1.57,6.14-.1,1.93,2.9,1.92,3,0Z" transform="translate(-9.5 -15.5)"/><path d="M166.17,225.43c4.07-2.52,8.37-4.65,13.15-2.49,1.85.84,2.91,2.18,5.1,1.59,1.82-.5,2.7-2,3.87-3.34a15,15,0,0,1,9.83-5.41c1.91-.27,1.1-3.16-.79-2.89a17.72,17.72,0,0,0-8.09,3.19,34,34,0,0,0-2.83,2.66c-.23.27-.46.55-.68.84q-2.72,2.85-4.9.77c-2.69-.69-4.15-1.68-7.2-1.3-3.29.4-6.21,2.07-9,3.79-1.64,1-.13,3.61,1.51,2.59Z" transform="translate(-9.5 -15.5)"/><path d="M207.07,215.11a11.87,11.87,0,0,1,5.73,5.46c.88,1.72,3.47.21,2.59-1.51a14.47,14.47,0,0,0-6.8-6.54c-1.75-.81-3.27,1.78-1.52,2.59Z" transform="translate(-9.5 -15.5)"/><path d="M198.72,215.42a1.5,1.5,0,0,0,0-3,1.5,1.5,0,0,0,0,3Z" transform="translate(-9.5 -15.5)"/><path d="M158.1,211.14c7.66,0,7.67-11.9,0-11.9s-7.68,11.9,0,11.9Z" transform="translate(-9.5 -15.5)"/><path d="M156.72,207.25a6.42,6.42,0,0,0,2.9-1.67,7.48,7.48,0,0,0,1.69-2.89,6,6,0,0,0-8.75-6.73,6.53,6.53,0,0,0-2.73,3.56l0,.12.6-1.42-.07.1.93-1.2-.09.09,1.2-.94-.11.07,1.42-.6-.12,0a6.12,6.12,0,0,0-3.55,2.74,6,6,0,0,0,2.13,8.14,6.22,6.22,0,0,0,4.59.6Z" transform="translate(-9.5 -15.5)"/><path d="M160.07,203.81c7.66,0,7.67-11.9,0-11.9s-7.67,11.9,0,11.9Z" transform="translate(-9.5 -15.5)"/><path d="M161.06,210.58c7.66,0,7.67-11.91,0-11.91s-7.68,11.91,0,11.91Z" transform="translate(-9.5 -15.5)"/><path d="M167.26,214.24c7.66,0,7.67-11.91,0-11.91s-7.68,11.91,0,11.91Z" transform="translate(-9.5 -15.5)"/><path d="M174.86,214.1c7.66,0,7.68-11.91,0-11.91s-7.67,11.91,0,11.91Z" transform="translate(-9.5 -15.5)"/><path d="M176.84,211c7.66,0,7.67-11.91,0-11.91s-7.68,11.91,0,11.91Z" transform="translate(-9.5 -15.5)"/><path d="M176.7,221.14c7.66,0,7.67-11.9,0-11.9s-7.68,11.9,0,11.9Z" transform="translate(-9.5 -15.5)"/><path d="M178.67,221c7.66,0,7.67-11.9,0-11.9s-7.68,11.9,0,11.9Z" transform="translate(-9.5 -15.5)"/><path d="M142.6,186.48c7.66,0,7.67-11.9,0-11.9s-7.68,11.9,0,11.9Z" transform="translate(-9.5 -15.5)"/><path d="M141.75,192c7.66,0,7.68-11.91,0-11.91s-7.67,11.91,0,11.91Z" transform="translate(-9.5 -15.5)"/><path d="M142.88,198.74c7.66,0,7.67-11.9,0-11.9s-7.67,11.9,0,11.9Z" transform="translate(-9.5 -15.5)"/><path d="M143,201c7.66,0,7.67-11.91,0-11.91S135.35,201,143,201Z" transform="translate(-9.5 -15.5)"/><path d="M147.53,204.66c7.66,0,7.67-11.91,0-11.91s-7.67,11.91,0,11.91Z" transform="translate(-9.5 -15.5)"/><path d="M150.49,211.28c7.66,0,7.67-11.9,0-11.9s-7.68,11.9,0,11.9Z" transform="translate(-9.5 -15.5)"/><path d="M157.81,216.07c7.67,0,7.68-11.9,0-11.9s-7.67,11.9,0,11.9Z" transform="translate(-9.5 -15.5)"/><path d="M158.38,223c7.66,0,7.67-11.91,0-11.91s-7.68,11.91,0,11.91Z" transform="translate(-9.5 -15.5)"/><path d="M166.41,222.55c7.66,0,7.67-11.9,0-11.9s-7.67,11.9,0,11.9Z" transform="translate(-9.5 -15.5)"/><path d="M166.27,224.1c7.66,0,7.67-11.9,0-11.9s-7.68,11.9,0,11.9Z" transform="translate(-9.5 -15.5)"/><path d="M169.09,223.12c7.66,0,7.67-11.91,0-11.91s-7.68,11.91,0,11.91Z" transform="translate(-9.5 -15.5)"/><path d="M215.16,214c7.66,0,7.67-11.91,0-11.91s-7.67,11.91,0,11.91Z" transform="translate(-9.5 -15.5)"/><path d="M214.74,217.2c7.66,0,7.67-11.91,0-11.91s-7.68,11.91,0,11.91Z" transform="translate(-9.5 -15.5)"/><path d="M216.57,220.86c7.66,0,7.67-11.9,0-11.9s-7.67,11.9,0,11.9Z" transform="translate(-9.5 -15.5)"/><path d="M221.78,214.1c7.66,0,7.68-11.91,0-11.91s-7.67,11.91,0,11.91Z" transform="translate(-9.5 -15.5)"/><path d="M211.78,202.69c3.86,0,3.87-6,0-6s-3.87,6,0,6Z" transform="translate(-9.5 -15.5)"/><path d="M211.78,205.65c3.86,0,3.87-6,0-6s-3.87,6,0,6Z" transform="translate(-9.5 -15.5)"/><path d="M223.19,206.78c3.86,0,3.87-6,0-6s-3.87,6,0,6Z" transform="translate(-9.5 -15.5)"/><path d="M227.28,215.37c3.86,0,3.86-6,0-6s-3.87,6,0,6Z" transform="translate(-9.5 -15.5)"/><path d="M231.08,218.61c3.86,0,3.87-6,0-6s-3.87,6,0,6Z" transform="translate(-9.5 -15.5)"/><path d="M149.36,181c3.86,0,3.87-6,0-6s-3.87,6,0,6Z" transform="translate(-9.5 -15.5)"/><path d="M148.8,182.69c3.86,0,3.86-6,0-6s-3.87,6,0,6Z" transform="translate(-9.5 -15.5)"/><path d="M148.37,185.64c3.87,0,3.87-6,0-6s-3.86,6,0,6Z" transform="translate(-9.5 -15.5)"/><path d="M147.53,190.58c3.86,0,3.87-6,0-6s-3.87,6,0,6Z" transform="translate(-9.5 -15.5)"/><path d="M142,177.05c3.87,0,3.87-6,0-6s-3.86,6,0,6Z" transform="translate(-9.5 -15.5)"/><path d="M143.25,173.81l0-.17.1.8a5.36,5.36,0,0,1,0-1.06l-.11.79a4.52,4.52,0,0,1,.27-1,3.06,3.06,0,0,0-.31-2.31,3,3,0,0,0-1.79-1.38,3.08,3.08,0,0,0-3.69,2.09,7.66,7.66,0,0,0-.24,3.86,3,3,0,0,0,1.38,1.79,3,3,0,0,0,4.1-1.07,3.57,3.57,0,0,0,.3-2.32Z" transform="translate(-9.5 -15.5)"/><path d="M147.25,154.51c3.86,0,3.86-6,0-6s-3.87,6,0,6Z" transform="translate(-9.5 -15.5)"/><path d="M145.28,159.86c3.86,0,3.86-6,0-6s-3.87,6,0,6Z" transform="translate(-9.5 -15.5)"/><path d="M146,158.17c3.86,0,3.87-6,0-6s-3.87,6,0,6Z" transform="translate(-9.5 -15.5)"/><path d="M143.73,163.81c3.86,0,3.86-6,0-6s-3.87,6,0,6Z" transform="translate(-9.5 -15.5)"/><path d="M141.33,167.05c3.86,0,3.87-6,0-6s-3.87,6,0,6Z" transform="translate(-9.5 -15.5)"/><path d="M146.4,163.24c3.86,0,3.87-6,0-6s-3.86,6,0,6Z" transform="translate(-9.5 -15.5)"/><path d="M144.29,169.58c3.86,0,3.87-6,0-6s-3.87,6,0,6Z" transform="translate(-9.5 -15.5)"/><path d="M144.85,167.05c3.86,0,3.87-6,0-6s-3.86,6,0,6Z" transform="translate(-9.5 -15.5)"/><path d="M141.19,171.41c3.86,0,3.87-6,0-6s-3.87,6,0,6Z" transform="translate(-9.5 -15.5)"/><path d="M143.44,173.25c3.86,0,3.87-6,0-6s-3.86,6,0,6Z" transform="translate(-9.5 -15.5)"/><path d="M178.24,202.27c3.87,0,3.87-6,0-6s-3.86,6,0,6Z" transform="translate(-9.5 -15.5)"/><path d="M162.46,193.68c3.87,0,3.87-6,0-6s-3.86,6,0,6Z" transform="translate(-9.5 -15.5)"/><path d="M146,213.4c3.86,0,3.87-6,0-6s-3.87,6,0,6Z" transform="translate(-9.5 -15.5)"/><path d="M144.71,215.66c3.86,0,3.87-6,0-6s-3.87,6,0,6Z" transform="translate(-9.5 -15.5)"/><path d="M154.29,225.94c3.86,0,3.87-6,0-6s-3.86,6,0,6Z" transform="translate(-9.5 -15.5)"/><path d="M152.18,228.9c3.86,0,3.87-6,0-6s-3.87,6,0,6Z" transform="translate(-9.5 -15.5)"/><path d="M184.16,221.29c3.86,0,3.87-6,0-6s-3.86,6,0,6Z" transform="translate(-9.5 -15.5)"/><path d="M182.75,222.14c3.86,0,3.87-6,0-6s-3.86,6,0,6Z" transform="translate(-9.5 -15.5)"/><path d="M188.11,219.46c3.86,0,3.86-6,0-6s-3.87,6,0,6Z" transform="translate(-9.5 -15.5)"/><path d="M192.62,215.51c3.86,0,3.86-6,0-6s-3.87,6,0,6Z" transform="translate(-9.5 -15.5)"/><path d="M192.05,216.08c3.86,0,3.87-6,0-6s-3.86,6,0,6Z" transform="translate(-9.5 -15.5)"/><path d="M195,208.19c3.86,0,3.87-6,0-6s-3.87,6,0,6Z" transform="translate(-9.5 -15.5)"/><path d="M194.45,211.15c3.86,0,3.87-6,0-6s-3.87,6,0,6Z" transform="translate(-9.5 -15.5)"/><path d="M196,214.11c3.86,0,3.87-6,0-6s-3.87,6,0,6Z" transform="translate(-9.5 -15.5)"/><path d="M218.68,224.39c3.86,0,3.87-6,0-6s-3.86,6,0,6Z" transform="translate(-9.5 -15.5)"/><path d="M217.84,224.11c3.86,0,3.86-6,0-6s-3.87,6,0,6Z" transform="translate(-9.5 -15.5)"/><path d="M219.25,226.79c3.86,0,3.86-6,0-6s-3.87,6,0,6Z" transform="translate(-9.5 -15.5)"/><path d="M240.78,157.18c2.21-4.76,6.89-11.61,4.56-17.08a7.79,7.79,0,0,0-4.9-4.23c-2.07-.69-3.54-.06-4.93-1.59s-3.41.69-2.12,2.12c2.06,2.27,3.39,1.31,6.25,2.36,7,2.58.53,12.65-1.45,16.91-.81,1.74,1.78,3.27,2.59,1.51Z" transform="translate(-9.5 -15.5)"/><path d="M145.21,124.8a219.13,219.13,0,0,0-15.34,22c-.82,1.35.77,2.69,2,2.05l5-2.5-2.21-1.7a200.62,200.62,0,0,1-9.15,20.42,1.52,1.52,0,0,0,2.06,2l2.89-.57-1.45-1.9L120,187a1.52,1.52,0,0,0,2.21,1.69,10.94,10.94,0,0,1,6-2.25l-1.5-1.5a39.76,39.76,0,0,1-2.54,17.64c-.43,1.14.84,2.07,1.85,1.85l2.17-.48-1.89-1.45A166.14,166.14,0,0,0,129,223a1.51,1.51,0,0,0,2.51.66c.4-.51,3.27-4.8,3.74-4.73s.52,4.82.54,5.15c.11,1.66-.22,4.46,1,5.85,1.59,1.8,2.69.1,4.38.92.17.09.7,5.49,1.68,6.63a1.52,1.52,0,0,0,1.81.23,5.31,5.31,0,0,0,1.42-1.07l-2.35-.31c2.78,4.21-2,13.68,2.92,17.15,1.74,1.23,3.54.07,5.23-.7,4-1.81,8-3.65,12-5.48l-1.82-.23c1.71,1.53,2.09,4.73,3.65,6.55a8.54,8.54,0,0,0,5.27,3.08c5.37.69,6.38-4.92,10.4-6.73,4.83-2.18,3.4,2.94,5,5.08a3.56,3.56,0,0,0,2.95,1.37c2,.11,4.36-1.17,6.07-1.94,1.34-.61,2.7-1.8,4.08-2.26q1.86-2.11,4.15.39a10.11,10.11,0,0,1-.14,2.33c-.16,1.26,1.35,1.71,2.25,1.3a53.64,53.64,0,0,0,20.72-16.52l-2.8-.76,0,7.79c0,1.21,1.7,2.1,2.56,1.06,3.33-4,6.56-8.09,9.64-12.29,2.73-3.71,6.09-6.2,9.1-9.69,6-7,12.77-15.71,14.79-24.89,1-4.68,1.63-13.93-5.54-12.59-5.11,1-10.37,3.72-15.13,5.74-4.41,1.87-9.26,5.22-13.89,6.33-1.87.44-1.08,3.34.8,2.89,2.63-.63,5.19-2.39,7.65-3.54,4.36-2,8.8-3.91,13.28-5.65,3.87-1.49,10.16-5.53,10.4,1.24.17,4.71-1.6,9.25-3.87,13.28-3.8,6.76-8.74,14.21-14.71,19.21-5.8,4.86-9.76,12-14.64,17.84l2.56,1.06,0-7.79a1.51,1.51,0,0,0-2.79-.76,50.73,50.73,0,0,1-19.64,15.45l2.26,1.29c.37-3-.27-8-4.48-7.55-3.16.37-6.25,3.79-9.21,4.95-2.06.8-3.11,1.8-4.26-1-.37-.91-.06-1.79-.55-2.73-1.74-3.37-6-2.89-8.69-1-2.91,2-4.78,7.76-9.62,5.57-3.4-1.54-3-6-5.49-8.19a1.56,1.56,0,0,0-1.81-.24l-7.72,3.52c-1.28.59-2.88,1.73-4.28,2-2.73.45-2.55-1-2.82-3.27-.47-3.9,1-8.68-1.23-12.1a1.52,1.52,0,0,0-2.36-.3,2.67,2.67,0,0,1-.81.6l1.82.23c-.43-.49.55-3.72.19-4.76a4,4,0,0,0-1.66-2.12c-1.13-.72-2.58,0-3.52-.48-1.79-.92-1.26-5.3-1.4-7.23s-.1-4.86-2.53-5.31c-2.89-.53-5.28,4.35-6.66,6.09l2.51.66a158.94,158.94,0,0,1-2.61-19.68,1.52,1.52,0,0,0-1.9-1.44l-2.18.47,1.85,1.85A41.71,41.71,0,0,0,129.7,185a1.52,1.52,0,0,0-1.5-1.5,13.77,13.77,0,0,0-7.48,2.66l2.21,1.69,9-22.32c.39-.95-.57-1.86-1.44-1.9a8.24,8.24,0,0,0-4.41,1l2.06,2a209,209,0,0,0,9.44-21.13c.51-1.32-1.14-2.22-2.2-1.69l-5,2.5,2.05,2.05a213.77,213.77,0,0,1,14.87-21.44c1.19-1.5-.92-3.64-2.12-2.12Z" transform="translate(-9.5 -15.5)"/><path d="M238.32,155.53a74.72,74.72,0,0,1-7.45,13.29c-1.11,1.59,1.49,3.09,2.59,1.52a76.07,76.07,0,0,0,7.45-13.29c.75-1.76-1.83-3.29-2.59-1.52Z" transform="translate(-9.5 -15.5)"/><circle class="cls-2" cx="175" cy="141" r="2.5"/><circle class="cls-2" cx="193.5" cy="142.5" r="3"/></g><g id="circle"><path d="M157.5,25.5a138,138,0,0,1,97.58,235.58A138,138,0,1,1,59.92,65.92,137.07,137.07,0,0,1,157.5,25.5m0-10a148,148,0,1,0,148,148,148,148,0,0,0-148-148Z" transform="translate(-9.5 -15.5)"/></g><g id="noseRing"><path class="cls-7" d="M194,168.66a5.5,5.5,0,0,0-4-5.77,6.86,6.86,0,0,0-7,2.58,9.52,9.52,0,0,0-1.67,8,3.72,3.72,0,0,0,5.26,2.51c1.75-.81.23-3.4-1.51-2.59-1,.45-1-2.13-1-2.68a6.16,6.16,0,0,1,1.61-3.78c1.87-1.86,5.6-1.45,5.26,1.76-.21,1.92,2.79,1.9,3,0Z" transform="translate(-9.5 -15.5)"/></g></svg>