<svg xmlns="http://www.w3.org/2000/svg" viewBox="0 0 296 296"><defs><style>.cls-1{fill:#999;}.cls-2{fill:#8c6239;}.cls-3{fill:#603813;}</style></defs><title>neutralBigFoot</title><g id="circleColor"><path class="cls-1" d="M296.51,157.59c0-10-.18-20.06-.57-30.09a10,10,0,0,0-6.16-9.15,42.86,42.86,0,0,0-1.16-4.38c-.8-2.44-1.74-4.82-2.76-7.17a33,33,0,0,0-5.25-10.89A13.36,13.36,0,0,0,279,94.08c-.22-.76-.43-1.53-.65-2.35-2.24-8.34-6.86-14.47-13-20.37a9.84,9.84,0,0,0-5.58-2.71c-5.44-7.36-10.83-14.36-18.32-19.78s-15.7-10.59-23.57-15.82c-3.61-2.39-7.32-4.79-11.62-5.75-.36-.08-.71-.14-1.06-.19-3.43-2.69-8.43-3.59-12-1l-1,.72a11.76,11.76,0,0,0-1.49-2.09,17.71,17.71,0,0,0-11-5.46,43.42,43.42,0,0,0-5-.4c-.7,0-1.4,0-2.1,0H172a12.23,12.23,0,0,0-9.47.22,10.67,10.67,0,0,0-4.88-1.27c-4-.08-7.78,1.18-11.66,1.85-3.66.64-7.35.79-11,1.18-6.07.66-12.37,2.67-16.4,7.22A30.47,30.47,0,0,0,111,29.53a50.61,50.61,0,0,0-6.86,3.25,11.08,11.08,0,0,0-7.46.92A129.68,129.68,0,0,0,67.57,52.87a8.06,8.06,0,0,0-1.19,1.29A44.63,44.63,0,0,0,57.48,64a12.78,12.78,0,0,0-.83,1.53Q53.25,68.19,50,71c-4.36,3.8-9,7.62-12.1,12.57-2.62,4.17-3.28,9.2-6.1,13.25s-7,7.36-10.87,10.53c-4.37,3.63-3.75,11.1,0,14.85,4.31,4.32,10.47,3.63,14.85,0,8.08-6.72,14-13.54,18.06-23a8.83,8.83,0,0,0,7.26-3.05,46.77,46.77,0,0,1,6.17-6.38,11,11,0,0,0,10.37-2.56,50.05,50.05,0,0,1,17.65-9.6,47.87,47.87,0,0,0,10.33-4.14c2.15-1.3,3.89-3.3,6.21-4.32,3.07-1.34,6.79-1.43,10-2.54a53,53,0,0,0,10.85-5.18c4.64-2.92,11.32-6.89,14.69-11.86l.24,0c4.73-1.16,7.58-4.06,10.86-7.4,1.55-1.57,3.32-2.85,4.92-4.32a28.92,28.92,0,0,0,10.79,2.1c.66,0,1.33,0,2,0h0a10.13,10.13,0,0,0,7.79,2.69c1.18,3,3.64,5.8,6.84,6.27h0a27.16,27.16,0,0,0,3.75,5.25c1.72,1.89,3.94,3.38,5.45,5.43,1.63,2.21,2.52,5,3.81,7.39C208.17,75.1,215.27,80.8,223,85.5a11,11,0,0,0,2.7,5.72l.87,1a10.11,10.11,0,0,0,.63,2.1,11.39,11.39,0,0,0,6.75,6.13l.27.31a21.29,21.29,0,0,1,.37,2.58c.43,4.85,4.11,8,5.38,12.29a6.12,6.12,0,0,0-.48,1.52c-.66,4.13.14,6.37,1.65,9.42.07.64.16,1.27.28,1.88l-.06.09a18.66,18.66,0,0,0-1.08,2.47c-.08.22-.13.4-.17.55-2.13,2.69-1.84,6.4-.5,9.4a3.5,3.5,0,0,1,0,2.41,9.06,9.06,0,0,0-.19,3.32c0,.11-.09.23-.12.34l-.53.31c-.66.36-1.35.69-2,1.11a4.79,4.79,0,0,0-2.29,5.16c.51,1.89,2,2.6,3.62,3.27A16.48,16.48,0,0,1,242,159a4.91,4.91,0,0,0,1.32.73s0,0,0,.05a8.16,8.16,0,0,0-1.72,3.33c-3,1.14-2.74,6.13.67,6.69a7.88,7.88,0,0,0,5.87,4.37c.08.11.18.25.29.43.53.9,1.26,1.72,1.84,2.59a61.62,61.62,0,0,1,3.83,6.7c2.38,4.77,8.4,5.06,12.34,2.47.32,0,.63,0,.94-.05a10.45,10.45,0,0,0,1.1,1c-.86,6.41-2.91,13.49-6.94,18.33a11.13,11.13,0,0,0-2.49,9.1,9,9,0,0,0-1.68,2.51l-11.84,26.05c-3.31,1.91-4.46,5.75-3.9,9.61a11.89,11.89,0,0,1,0,2.53,4.82,4.82,0,0,1-.15.63,14.75,14.75,0,0,0-3,3.19c-1.6,2.35-2.83,5-4.19,7.52-5.22,9.61,9.45,18.2,14.68,8.58a58.12,58.12,0,0,1,3.39-6.32c.13-.11.35-.3.71-.63a13.54,13.54,0,0,0,3.28-3.42,16.09,16.09,0,0,0,2-5.85,11,11,0,0,0,4.87-4.23A147.29,147.29,0,0,1,277.1,236a11.71,11.71,0,0,0,2.9-8.85,120.16,120.16,0,0,0,13.43-31.84,96.27,96.27,0,0,0,2.6-12.92,14.1,14.1,0,0,0-.58-6.62A118.06,118.06,0,0,0,296.51,157.59Z" transform="translate(-9.5 -13.5)"/></g><g id="faceColor"><path class="cls-2" d="M262.91,186.78a5.84,5.84,0,0,0-4.23.11,7,7,0,0,0-1.56.88,30.77,30.77,0,0,0-5.31-5.33,3.33,3.33,0,0,0-2.45-3.71l-.86-.23c-.57-2.34-2-4.41-4.48-4.74-1.71-2.33-3.38-4.77-4-5.38a22,22,0,0,0-3.17-2.64c.65-.16,1.24-.32,1.49-.36a2.83,2.83,0,0,0,1.86-1.21,1.12,1.12,0,0,0,.45.07,1.52,1.52,0,0,0,1.5-1.5v-.33a1.51,1.51,0,0,0-1.42-1.49,3,3,0,0,0-.85-1.39,25.23,25.23,0,0,0-6-4.1,3.52,3.52,0,0,0-1-.31c.87-2.6,1.68-5.2,2.28-7.75a8.08,8.08,0,0,0,.57-.6,1.08,1.08,0,0,0,.31-.07,6.12,6.12,0,0,0,3.53-3.22,1.59,1.59,0,0,0,0-1.51,1.49,1.49,0,0,0-1.3-.74l-.36,0a4.09,4.09,0,0,0-1-.72.5.5,0,0,0-.64.14H236a19.63,19.63,0,0,0-.27-3.92l.31,0c3.21-.76,5.12-4.49,3.16-7.37a4.53,4.53,0,0,0-.12-.9,5.2,5.2,0,0,0-2.86-3.3,4.58,4.58,0,0,0-.45-.7,45.2,45.2,0,0,0-9-8.28,3,3,0,0,0-3.63.12,3.39,3.39,0,0,0-5.15-.43c-.7.65-1.41,1.34-2.13,2a13.75,13.75,0,0,1-4,2.33c-1.73.66-3.59.78-5.24,1.69a6.44,6.44,0,0,0-3.24,3.72,11.43,11.43,0,0,0-2.69.6,18.71,18.71,0,0,0-2.88,1.69,5.52,5.52,0,0,0-.4-.66,2.92,2.92,0,0,0,.2-2c.84-.9,2.14-2.46.28-1.79a3.7,3.7,0,0,0,1.88-5.38,1.5,1.5,0,0,0,1-.43l.33-.33a1.5,1.5,0,1,0-2.12-2.12l-.33.33a1.48,1.48,0,0,0-.41,1.16,3.09,3.09,0,0,0-2.24,0c-2.82,1-3.2,3.49-5.53,5.1-1.32.92-11.79,6.25-14.08,3.95.57-.79,1.15-1.57,1.73-2.35a3.22,3.22,0,0,0,0-3.42,1.25,1.25,0,0,0,1.41-1.43l-.13-1.17c0-.06.06-.12.08-.19.25-.61.49-2.21,1.2-2.45,1.82-.61,1-3.51-.8-2.89a4.25,4.25,0,0,0-2.6,2.68c-.06.14-.11.27-.17.4a1.21,1.21,0,0,0-.84,1.36,3.45,3.45,0,0,1,0,.55,7.21,7.21,0,0,1-.86,1.31,3.88,3.88,0,0,0-3.38,1.71c-1.3,1.77-3,3.64-3.74,5.74-1,.82-2.15,1.53-2.66,2.79a5.07,5.07,0,0,0,.49,4.92,3.87,3.87,0,0,0,1.3,1.14,2.84,2.84,0,0,0,1.35,1.27c2,.92,3.61,3.17,5.09,4.77.52.56,1,1.13,1.54,1.7a4.17,4.17,0,0,0-.17,1.16l-.54.06a4,4,0,0,0-2.29.94,1.45,1.45,0,0,0-.37,0,4.66,4.66,0,0,0-2.85,1.06c-.66.5-1.48,1.58-2.36,1.68a3.17,3.17,0,0,1-.53-.05,1.51,1.51,0,0,0-.8,2.9,3.56,3.56,0,0,0,2.28,0c.44,0,.88-.1,1.34-.18a3.41,3.41,0,0,1,2.28.09,3.94,3.94,0,0,0,3,1.81,6.7,6.7,0,0,1,1.27.18,10.4,10.4,0,0,0-.18,2.44,5.23,5.23,0,0,0-2.93.35c-.54.2-1.07.44-1.6.67a3.57,3.57,0,0,0-2.42.34c-2.47,1.32-4.87,2.74-7.22,4.27a3.44,3.44,0,0,0-1.37,1.62l-1.82,1.16a17.54,17.54,0,0,0-2.75,1.72l0,0h0l-.72.55a4.36,4.36,0,0,0-.43.43,1.49,1.49,0,0,0-2.39,1.2.88.88,0,0,1-.55,1c-1.46.8-.47,3.3,1.16,2.74l2.07-.71a3.4,3.4,0,0,0,4.39.86l1.75-1.05a3.65,3.65,0,0,0,1.67,2.69c-1.61,1.45-5.5,4.58-5.91,4.86-1.9,1.32-3.8,2.63-5.6,4.06-2.43,1.92-6.39,5.08-7.76,8.44l-.2,0a1.53,1.53,0,0,0-1.5,1.5,3.48,3.48,0,0,1-1.53,2.43,1.51,1.51,0,0,0,1.16,2.74l3.58-.79a8.68,8.68,0,0,0,4.59.56,74.68,74.68,0,0,0,8.07-1.68,3.28,3.28,0,0,0,1.32.59c2.36.48,5.22-.47,7.79-.71a3.3,3.3,0,0,0-.64.49c-2,2.11-1,5.43-3.45,7.35a2.76,2.76,0,0,0-1,3l-2.07,2.46a1.54,1.54,0,0,0,0,2.12,1.52,1.52,0,0,0,2.12,0l1.8-2.14a3.23,3.23,0,0,0,1.62.52,8.26,8.26,0,0,0,4.6-1.29c.69-.41,2.63-1.88,2.72-1.86a3.45,3.45,0,0,0,2.11-.15c.87.53,1.77,1,2.68,1.49a18.51,18.51,0,0,0-.66,1.84,20.77,20.77,0,0,1-4.58,8.07,3.41,3.41,0,0,0-.82,2,15.21,15.21,0,0,0-3.19,3.73c-.73,1.21.81,3,2.06,2l2.88-2.12a2.75,2.75,0,0,0,3.31-.2c3.79-2.78,8.9-3.64,13.48-4.23,3.49-.46,7.22.13,10.21-2.06a3.44,3.44,0,0,0,.41-.35,21.23,21.23,0,0,0,3.63-.34,6.06,6.06,0,0,1-1.36,4.13,3,3,0,0,0-.44,1.76,2.33,2.33,0,0,0-.41.42,33.56,33.56,0,0,1-3.86,4.47c-1.39,1.36.73,3.48,2.12,2.13a37.77,37.77,0,0,0,3.64-4.16,2.89,2.89,0,0,0,3.74.17,53.48,53.48,0,0,1,17-9c.72-.22,1.4-.39,2.08-.54a26.41,26.41,0,0,0,3-.43,26,26,0,0,1,5.81.31,28.4,28.4,0,0,0,6,.27,8.85,8.85,0,0,1-.46.78l0,0a3.3,3.3,0,0,0-.62.89c-1.5,2-3.38,3.81-3.3,6.36a1.81,1.81,0,0,0-.88,1c-.43,1-.85,2.08-1.27,3.12a1.5,1.5,0,0,0,1,1.84,1.54,1.54,0,0,0,1.85-1.05l.7-1.72c2.18,1.6,6.05,0,5.62-3.13l.09-.09c.41-.42.82-.86,1.2-1.32a16.28,16.28,0,0,0,1.79-2.58,3.45,3.45,0,0,0,.71-.33c5.12-3.23,8.61-8,12.35-12.67,3.44-4.29,6.82-8.53,7.85-14.08C268.05,188.59,265.23,185.75,262.91,186.78Z" transform="translate(-9.5 -13.5)"/></g><g id="circleBodyColor"><path class="cls-3" d="M196.27,289.85c1.58-3.62.4-8.81-.2-12.32a2.59,2.59,0,0,0-.8-1.34c.25-1.05.46-2.1.66-3.14a3,3,0,0,0-2.84-3.69,30.6,30.6,0,0,0,.44-3.9c.16-3.61-4.75-3.76-5.89-.8a36.81,36.81,0,0,1-12.82,16.62,5.89,5.89,0,0,1-2-1.52c-.55-.6-2.92-3.53-2.65-4.28a3,3,0,0,0-1.42-3.28c.27-.95.52-1.9.75-2.82A3,3,0,0,0,165.1,266a124.26,124.26,0,0,1-18.84,7.59c-6.24,1.91-14,4.69-20.56,3.15,0-.16,0-.31.07-.46a2.87,2.87,0,0,0,1.88-1.44A56.06,56.06,0,0,0,134,259.08a3.19,3.19,0,0,0,0-1.66,16.14,16.14,0,0,0,1.33-3A14.3,14.3,0,0,0,136,249a10.37,10.37,0,0,0-.15-1.1q1.08-2.25,2.15-4.52a3.4,3.4,0,0,0-.15-3.21c.58-1.54,1.1-3.11,1.53-4.71a3,3,0,0,0,.05-1.33c2.87-1.7.31-5.69-2.62-5.3a10.85,10.85,0,0,0-5,2.3l-17.38,8.12-1.18.56a91.06,91.06,0,0,1-17.71,2.66s0,0,0-.06c7.42-13.76,18.77-25.74,19.31-42.17a3,3,0,0,0-3.8-2.9,148.9,148.9,0,0,0-18.7,5.22,3.07,3.07,0,0,0-1.67-4.44,215,215,0,0,1,13.54-25.32,2.68,2.68,0,0,0,.14-2.7,70.45,70.45,0,0,1,5-5.38c2.08-2-.05-6-2.92-5L75.33,170.55c1.48-1.57,2.5-3.9,3.53-5.82,3.3-6.13,6.62-12.26,9.9-18.41,2.8-5.26,5.19-10.43,3.64-16.45A3,3,0,0,0,88,128.08c-6.91,3.51-14.32,7.18-22.21,6.36-.87-9.44,8.36-17.72,10.77-26.52.56-2.07-1-3.55-2.9-3.79a42.27,42.27,0,0,0-14.23.6,2.5,2.5,0,0,0-1.4.87,2.6,2.6,0,0,0-3.11-.09c-10.84,6.74-21.9,13.3-30.34,22.9A2.83,2.83,0,0,0,21,131.24l.09,2.47a3.35,3.35,0,0,0,.16.93c0,.3.09.59.13.89a11.12,11.12,0,0,0-.71,1.2c-1.79,3.55-1.69,7.86-2,11.72q-.59,8.06-1.16,16.1c-.33,4.56-.85,9.21.1,13.74,1.09,5.19,4.28,9.71,4.95,15a3.56,3.56,0,0,0,.88,1.88,3.08,3.08,0,0,0-.08,1.42c1.22,7,3,14.11,7.06,20.07a41,41,0,0,0,4.65,11.57,34,34,0,0,0,4.15,5.27,2.35,2.35,0,0,0,.42,2l3.64,4.94a3.28,3.28,0,0,0,1.21,1c.89,1,1.78,2.08,2.7,3.09a3.17,3.17,0,0,0,.2.73l1.38,3.18a3.25,3.25,0,0,0,.61,2.19,3,3,0,0,0,2.68,1.43c1,1.15,2.23,3,2.63,3.37a21,21,0,0,0,3.7,2.54c.45.59.92,1.15,1.42,1.69a3.17,3.17,0,0,0,1.27,1.79l2.61,1.68a3,3,0,0,0,2.88,3.05c.58.06,1.14.15,1.72.23a28,28,0,0,0,4.38,8.41,34.52,34.52,0,0,0,21.87,12.93,3.17,3.17,0,0,0,3-1c6,4.69,13.83,7.22,21.07,9.25,7.71,2.15,16.39,4.06,24.44,3.49.44,0,.87-.07,1.29-.13a3.28,3.28,0,0,0,2.77,2.09c13.92.94,27.72-.84,41.47-2.87,4.4-.66,8.21-1.82,7.89-7A11.32,11.32,0,0,0,196.27,289.85Z" transform="translate(-9.5 -13.5)"/><path class="cls-3" d="M227,275.94a17.66,17.66,0,0,0-1.3-4.83,6.21,6.21,0,0,0,.83-5.06,3,3,0,0,0-4.41-1.8,19,19,0,0,0-7.35,7.77,3.44,3.44,0,0,0-.36,1.3A46.21,46.21,0,0,0,211.2,278c-2.39,3.82-6.36,6.24-7.88,10.58-.7,2,1.09,3.65,2.89,3.8l1.16.1a2.55,2.55,0,0,0,2.87-2.63,3.18,3.18,0,0,0,1.1-.06c3.52-.83,6.09-3.19,9.38-4.47,2.65-1,6.86-.95,7.85-4.3A4.69,4.69,0,0,0,227,275.94Z" transform="translate(-9.5 -13.5)"/></g><g id="circleBody"><path d="M55.35,101Q37.73,112.59,21.2,125.74c-3,2.4,1.25,6.62,4.25,4.24q15.92-12.64,32.93-23.82c3.21-2.11.21-7.31-3-5.18Z" transform="translate(-9.5 -13.5)"/></g><g id="headColor"><path class="cls-3" d="M249.91,217.72c-.34.68-.69,1.35-1,2-1.13,1.43-2.91,2.4-4.2,3.66l-.39.4a4.25,4.25,0,0,0-3,.74l-11.85,8.06a6.25,6.25,0,0,0,0-.75c2-3.21,5-6,6.63-9.45a6.2,6.2,0,0,0,.38-1.15,1.5,1.5,0,0,0,.58-2c.11-.53.22-1.06.32-1.59a1.51,1.51,0,0,0-1.15-2.75l-2.25.45a4.5,4.5,0,0,0-3.53-.3c-2.31.71-4.56,1.51-6.8,2.37a60.64,60.64,0,0,0-11.45,3.67,8.06,8.06,0,0,0-3.19.9,4.37,4.37,0,0,0-2.32,3,33.09,33.09,0,0,0-8.28,5.21q-2.64,1.6-5.23,3.26a47.36,47.36,0,0,0,4.36-9.89,4.42,4.42,0,0,0,.1-.5,1.14,1.14,0,0,0,.34-.15l1-.69a1.61,1.61,0,0,0,.71-1.6l.3-.19a1.41,1.41,0,0,0,.53-.61l.74-.14c1.89-.37,1.09-3.26-.8-2.9l-4.16.81a1.3,1.3,0,0,0-.86.53,4.81,4.81,0,0,0-5.21-.21c-2.93,1.83-5.65,3.42-9,4.12a50.31,50.31,0,0,0-8.32,2.3c-2.69,1.05-5.58,3-6.85,5.47l-2.27-.89c2-4,3.86-8.08,5.58-12.24a3.76,3.76,0,0,0,.25-1.47,11.5,11.5,0,0,0,2.22-3.43c1.73-.6,3-1.6,2.42-3.34a1.58,1.58,0,0,0-1.45-1.1c-1.67-.21-4.57-.17-5.82,1.24a2.29,2.29,0,0,0-.44.79,5.36,5.36,0,0,0-1.15.33,1.59,1.59,0,0,0-.77.65h-.08a14,14,0,0,0-7.19,2.73,5.91,5.91,0,0,0-.18-1.55.24.24,0,0,0,0-.08,7.89,7.89,0,0,0,1.69-2.16,8.17,8.17,0,0,0,.54-6.59,13.28,13.28,0,0,1,3.35-3.42,1.52,1.52,0,0,0-.76-2.8,24.92,24.92,0,0,0-5.11.25,4.57,4.57,0,0,0-4.58-1.08,24.39,24.39,0,0,1-9.49,1.61,49.48,49.48,0,0,1-5.07-1.16,4.28,4.28,0,0,0,.55-1.52c.86-5.39,6-9,9.55-12.87a5.2,5.2,0,0,0,1.16-2.07,1.37,1.37,0,0,0,.49-.21l8.22-5.41a1.52,1.52,0,0,0-.36-2.74,11.23,11.23,0,0,0-10.48,1.73l-.08,0v0l-.31.22a1.22,1.22,0,0,0-.29.32,4.82,4.82,0,0,0-1.09-.42l3.24-5.28a1.63,1.63,0,0,0,2-1.72,5.17,5.17,0,0,0,3.69-2.37c.18-.28.37-.56.56-.83l.16-.23c.13-.16.36-.44.4-.5.22-.25.44-.5.67-.74a24.38,24.38,0,0,1,2.8-2.57l.1-.1a1.4,1.4,0,0,0,1.55-.68c.89-1.46,3.16-1.75,4.65-2.21l5.3-1.64a1.51,1.51,0,0,0-.4-3,39.09,39.09,0,0,0-11.06.68,2.09,2.09,0,0,0-.14-.17,5.86,5.86,0,0,0-1-.72c0-.12.1-.25.16-.37a4.75,4.75,0,0,0,2.19-.82,49.43,49.43,0,0,1,8.21-4.47,5.78,5.78,0,0,0,3-2.46,1.47,1.47,0,0,0,1.64-.66,1.52,1.52,0,0,0-.54-2,3.54,3.54,0,0,0-.57-.22,4.59,4.59,0,0,0-2.38-3.74c-2.19-1-5-1.93-5.52-4.54a4.26,4.26,0,0,0-1.52-2.45,17.62,17.62,0,0,0,6.05-5,6,6,0,0,0,1.41-4c.26-.24.5-.48.77-.7a4.15,4.15,0,0,0,1.6-3.4c1.31-.52,2.63-1,3.94-1.51a5.38,5.38,0,0,0,1.71-.62l.35-.2a39.83,39.83,0,0,0,3.86-1.81l-.87,2.21a3.81,3.81,0,0,0-.1,2.45,1.26,1.26,0,0,0-.86,1,9.15,9.15,0,0,1-2,4.25,1.52,1.52,0,0,0,1.46,2.51,32.64,32.64,0,0,0,11.55-5.6l.32-.23h0l.3-.23a1.31,1.31,0,0,0,.34-.41,39.49,39.49,0,0,0,7-3.94,6.48,6.48,0,0,0,1.26-1.19,15.13,15.13,0,0,0,2.22,1.79,20,20,0,0,0-3.33,9c-.14,1.17,1.37,1.82,2.26,1.3l12.93-7.64a1.44,1.44,0,0,0,.6-1.83,14.61,14.61,0,0,0,4.48-3.43c1.86,2.87,5.14,2.91,7.61,5.27a5.47,5.47,0,0,0,5,1.11,2.79,2.79,0,0,1,.2,1.55,1.55,1.55,0,0,0,1,1.85,1.51,1.51,0,0,0,1.84-1.05,6.6,6.6,0,0,0-.51-3.81,3.82,3.82,0,0,0,1-3.19c-1.21-9.28-7.25-14.78-12.07-22.31a5.09,5.09,0,0,0-4.48-2.41L217.86,86a16.23,16.23,0,0,0-8.15-8.89l-17-22.73a19,19,0,0,0-4.42-4.31c0-.21-.08-.38-.1-.48-1.09-5.14-6.26-9.08-11.22-9.67-.52-.06-1-.09-1.5-.1a13.75,13.75,0,0,0-11.23.4,10.22,10.22,0,0,0-5.27,2c-18.05,13.44-39.89,21-56.25,36.74a20.28,20.28,0,0,0-10.12,2.36c-3.19,1.75-5.3,4.83-8.4,6.64-3.32,1.94-7.42,2.33-11,3.43a59.3,59.3,0,0,0-12,5.3c-2.08,1.19-1.91,5,.72,5.49a33,33,0,0,0,14-.8,12.42,12.42,0,0,0,.43,7.18c-.67.51-1.34,1-2,1.57a23.68,23.68,0,0,0-6.25,8.57,13.75,13.75,0,0,0-3.5,17.56,13,13,0,0,0,11.31,6.49q-1.19,8.3-1.77,16.65c-.72,10.43,11.73,16.35,20.12,11.76a86.88,86.88,0,0,1-3.65,13c-2,5.54,1.36,12.41,6.2,15.24a12.56,12.56,0,0,0,7.14,1.74L95.24,227c-1.89,5.62,1.26,12.35,6.21,15.24,5.58,3.27,11.58,1.65,16.36-2.11l9.79-7.71c.3,3,.48,6,.61,9.06a14.3,14.3,0,0,0,6.25,11.3l-.53,1.35a48.79,48.79,0,0,0-4,4.25c-8.53,10.33-.64,25.55,13.13,22.57,6-1.3,9.69-5.39,12.69-10.14l.47-.39c.26-.21,3-1.92,5-3.26a18.43,18.43,0,0,1,.43,3c.67,6.55,5.68,14.48,13.5,13.5a26,26,0,0,0,9.92-2.91c3.25,6.8,12.3,10.52,19.08,6.08L220,276.37c2.09-1.37,4.15-2.66,6.07-4,3.16,4.1,11.06,1.48,8.88-4-.91-2.32-.57-5.32.26-8.38.15-.5.3-1,.44-1.51,1.06-3.34,2.55-6.64,3.49-9.06a113.28,113.28,0,0,1,9-18,4.64,4.64,0,0,0,.26-4.23c1.06-2,2.1-3.94,3.12-5.94a7.82,7.82,0,0,0,1.16-2.33C253.12,217.28,250.68,216.18,249.91,217.72Z" transform="translate(-9.5 -13.5)"/></g><g id="head"><path d="M193.18,48.12C186.1,39.43,174.76,29,163,36.3c-5.74,3.55-10.57,8.84-16.1,12.76a195.07,195.07,0,0,1-18,11.23C103.48,74.4,76.05,84.64,50,97.55c-3.46,1.71-.43,6.89,3,5.18,23.5-11.66,48-21.24,71.33-33.25A199.09,199.09,0,0,0,155.64,50c5-3.91,10.3-10.82,17.24-9.88s11.83,7.1,16.05,12.28c2.44,3,6.66-1.27,4.25-4.24Z" transform="translate(-9.5 -13.5)"/><path d="M51.75,103.74c9.12,1.06,18,3.43,27.25,2.79,3.84-.26,3.86-6.26,0-6-9.21.64-18.15-1.74-27.25-2.79-3.83-.45-3.79,5.56,0,6Z" transform="translate(-9.5 -13.5)"/><path d="M189.05,52.36C203,70,218.45,86.51,230.52,105.53c2.06,3.25,7.25.25,5.18-3-12.35-19.45-28.18-36.34-42.41-54.38-2.39-3-6.61,1.24-4.24,4.24Z" transform="translate(-9.5 -13.5)"/><path d="M77,102.77q-7,15.6-14.69,30.93c-.94,1.87.16,4.68,2.59,4.51a58.4,58.4,0,0,0,32.47-12.65l-5.13-2.12c1.22,17.82-9.57,32.42-19.79,45.9-1.77,2.34,1.15,4.78,3.39,4.41a116.8,116.8,0,0,0,39.47-14.1l-4.11-4.11a310.22,310.22,0,0,1-15.46,30c-2,3.34,3.23,6.36,5.18,3a313.75,313.75,0,0,0,15.47-30c1.16-2.6-1.31-5.71-4.11-4.1a112.11,112.11,0,0,1-38,13.49l3.39,4.41c10.88-14.35,21.91-30,20.61-48.93-.18-2.76-3.07-3.74-5.12-2.12a51.24,51.24,0,0,1-28.22,10.89l2.59,4.51q7.63-15.31,14.69-30.92c1.58-3.49-3.59-6.55-5.18-3Z" transform="translate(-9.5 -13.5)"/><path d="M95.44,186.05,87.07,201.3c-1.37,2.51.89,4.76,3.39,4.41a112.94,112.94,0,0,0,26.43-6.94l-3.8-2.89c-1.06,16.88-10.55,31.31-19.64,45a3,3,0,0,0,1.07,4.1c6.67,3.15,14.07-1.76,20.16-4.4q13.35-5.79,26.52-12c3.5-1.63.46-6.8-3-5.18q-9.66,4.5-19.41,8.83-4.44,2-8.88,3.89c-3,1.3-9,5.2-12.33,3.63l1.08,4.1c9.76-14.67,19.33-30,20.46-48,.11-1.8-2-3.59-3.8-2.89a113.35,113.35,0,0,1-26.42,6.94l3.39,4.4,8.36-15.25c1.86-3.39-3.32-6.42-5.18-3Z" transform="translate(-9.5 -13.5)"/><path d="M136.75,226.33a74.78,74.78,0,0,1-11.81,48.72,3,3,0,0,0,2.59,4.51c9.58-.15,18.5-3.3,27.33-6.76,6.9-2.71,13.64-5.88,17.46-12.57l-5.49-.72a88.29,88.29,0,0,1,.78,23.19c-.37,3.84,5.63,3.81,6,0a94,94,0,0,0-1-24.79c-.45-2.61-4.29-2.81-5.49-.71-3.56,6.25-10.69,8.63-17.06,11-7.31,2.77-14.65,5.19-22.54,5.32l2.59,4.52a80.09,80.09,0,0,0,12.63-51.75c-.38-3.8-6.38-3.84-6,0Z" transform="translate(-9.5 -13.5)"/><path d="M172.55,285a74.29,74.29,0,0,0,22.08-28.19l-5.49-.71c4.85,14,6.91,28.16,4.23,42.9-.68,3.78,5.1,5.4,5.79,1.6,2.87-15.84,1-31-4.23-46.1-.75-2.18-4.34-3.26-5.48-.71a70.71,70.71,0,0,1-21.14,27c-3,2.38,1.23,6.6,4.24,4.24Z" transform="translate(-9.5 -13.5)"/><path d="M248,225.6c-9,17-12.94,35.79-18.72,54l5.48-.72c-.25-.57-.05-2.27-1.06-2.13l-2.92-.77c-1.07-1-.68.51-1,1.62-.16.67-.35,1.34-.55,2l5.48-.72a45.09,45.09,0,0,1-5-15.5c-.49-3.77-6.5-3.82-6,0a53.3,53.3,0,0,0,5.85,18.53c1.25,2.35,4.76,1.66,5.48-.72.89-2.92,3-10.06-2.16-10.34-5.69-.3-4.71,7.85-3.32,11.06,1.1,2.53,4.78,1.5,5.48-.72,5.63-17.65,9.41-36,18.12-52.52,1.8-3.41-3.37-6.45-5.18-3Z" transform="translate(-9.5 -13.5)"/><path d="M225.4,259.21c-17.24,5.11-23.22,24.79-30,39.44-1.61,3.48,3.56,6.54,5.18,3,5.9-12.77,11.33-32.22,26.41-36.68,3.69-1.09,2.12-6.88-1.6-5.79Z" transform="translate(-9.5 -13.5)"/><path d="M230.58,105.31a87.72,87.72,0,0,1,3.95,13.84c.81,4.2,1,8.3,3.21,12.07,1.93,3.35,7.11.33,5.18-3-2.11-3.67-2.08-8.31-3-12.4a90.43,90.43,0,0,0-3.59-12.07c-1.33-3.6-7.13-2-5.79,1.59Z" transform="translate(-9.5 -13.5)"/><path d="M254,227.47l3.6-7.87c1.09-2.4,2.22-4.61,2.47-7.26.35-3.85-5.65-3.82-6,0-.19,2-1.67,4.26-2.5,6.08l-2.75,6c-1.6,3.49,3.57,6.54,5.18,3Z" transform="translate(-9.5 -13.5)"/></g><g id="face"><path d="M184.41,137.3a80,80,0,0,0,29.32,4.26c6.44-.31,15-.64,18.53-6.93a1.5,1.5,0,0,0-2.59-1.51c-3.63,6.39-15.15,5.65-21.45,5.5a77.12,77.12,0,0,1-23-4.22c-1.83-.61-2.62,2.28-.8,2.9Z" transform="translate(-9.5 -13.5)"/><path d="M204,142.87c1.32,2.38-6,7.63-7.79,7.84-2.83.34-3.77-2.13-2.73-4.35.9-1.94,2.94-3.12,4.68-4.21s.13-3.62-1.51-2.59c-2.95,1.85-6.08,4-6.55,7.77a5.48,5.48,0,0,0,4.56,6.38c3.65.58,6.48-2,8.87-4.41,2.2-2.19,4.89-4.65,3.06-8-.93-1.68-3.53-.17-2.59,1.52Z" transform="translate(-9.5 -13.5)"/><path d="M194,144.24a13.24,13.24,0,0,0-1.2,4.49c-.09,1.07,1,1.58,1.9,1.45l0,.06.23-1.82-.17.17,1.06-.43.26,0,.69.9c-.28-1,.74-3,1.15-3.87a18.75,18.75,0,0,1,2-3.32c1.15-1.55-1.45-3-2.59-1.51a18.92,18.92,0,0,0-3.48,7.61c-.2,1-.25,2.11.7,2.78a1.85,1.85,0,0,0,2.48-.25,1.51,1.51,0,0,0,.24-1.81,3.12,3.12,0,0,0-3.37-1.45l1.9,1.45a8.72,8.72,0,0,1,.79-3c.8-1.75-1.78-3.27-2.59-1.52Z" transform="translate(-9.5 -13.5)"/><path d="M198.73,143.27l2.35.14,1.08.07.55,0c.38,0,.47,0,.28.05l-.66-.39.13.17-.44-1.06c0-.09,0,.14-.12.29s-.22.38-.34.57a2.56,2.56,0,0,1-.68.78c-.17.11-.35.06-.46.12s-.11,0-.16,0,0,.51.05,0c.14-1.92-2.86-1.91-3,0a3,3,0,0,0,2.42,3,3.93,3.93,0,0,0,4-1.72c.89-1.16,2.1-3.13.57-4.3a4.45,4.45,0,0,0-2.5-.48l-3.07-.19c-1.93-.12-1.92,2.88,0,3Z" transform="translate(-9.5 -13.5)"/><path d="M199,145.26c.52,0,1.05-.06,1.58,0l-.76-.2.14.07-.69-.89.06.18v-.8a4.6,4.6,0,0,1-2.19,2.81c-1.64,1-.14,3.6,1.52,2.59a8,8,0,0,0,3.2-3.59c.38-.85.68-1.89-.08-2.65s-1.87-.51-2.78-.49c-1.93.05-1.94,3.05,0,3Z" transform="translate(-9.5 -13.5)"/><path d="M197.73,149.22a1.5,1.5,0,0,0,0-3,1.5,1.5,0,0,0,0,3Z" transform="translate(-9.5 -13.5)"/><path d="M198,148.72a1.5,1.5,0,0,0,0-3,1.5,1.5,0,0,0,0,3Z" transform="translate(-9.5 -13.5)"/><path d="M197.84,152.27a9.76,9.76,0,0,0,5.29-4.72c.86-1.73-1.73-3.25-2.59-1.52a6.68,6.68,0,0,1-3.5,3.34,1.56,1.56,0,0,0-1,1.85,1.51,1.51,0,0,0,1.85,1.05Z" transform="translate(-9.5 -13.5)"/><path d="M227.24,137.55l-.13,3c0,.76.11,2.08-.42,2.72s-1.37.4-2,.2-2.27-.9-2.16-1.62l-1.44,1.1a14.17,14.17,0,0,0,4.85-.41c1.87-.48,1.08-3.37-.8-2.89a11.5,11.5,0,0,1-4,.3,1.5,1.5,0,0,0-1.45,1.11c-.57,3.46,3.59,5.94,6.71,5.55,4.35-.54,3.75-5.92,3.89-9.11.08-1.93-2.92-1.93-3,0Z" transform="translate(-9.5 -13.5)"/><path d="M224,141.52l-.06,1.8c0,1.42,2.15,2.12,2.8.75l.95-2a5.63,5.63,0,0,0,.76-2,2.32,2.32,0,0,0-2.77-2.26,3.84,3.84,0,0,0-2.83,5.44,1.5,1.5,0,0,0,2,.54,1.54,1.54,0,0,0,.54-2.05,1,1,0,0,1,.26-.77s.16-.11.19-.15.21-.12.19,0c-.24-.09-.25-.07,0,.06l-.54-.54c.09-.62.07-.77-.06-.44l-.2.43-.34.73-.75,1.59,2.79.76.06-1.8c.06-1.94-2.94-1.93-3,0Z" transform="translate(-9.5 -13.5)"/><path d="M216.54,143.05a169.47,169.47,0,0,0,14.76,11.83c2.61,1.88,5.24,3.86,8,5.52l1.47,1c1.7.25,1.59.66-.35,1.24-1.13,1.09-3.23,1.79-4.58,2.53-1.69.94-.18,3.53,1.51,2.59,2.57-1.41,6.81-2.54,7.76-5.57a1.52,1.52,0,0,0-.38-1.46c-3.14-3.4-8.15-5.7-11.92-8.41a164.33,164.33,0,0,1-14.15-11.36c-1.43-1.29-3.56.82-2.12,2.12Z" transform="translate(-9.5 -13.5)"/><path d="M236.59,168.42c4.49,1.32,7.84,5.68,10.81,9.08a109.38,109.38,0,0,1,8.48,11.17c1.07,1.6,3.67.1,2.59-1.51a113.09,113.09,0,0,0-10-12.91c-3.19-3.55-6.43-7.34-11.14-8.72-1.85-.55-2.65,2.35-.79,2.89Z" transform="translate(-9.5 -13.5)"/><path d="M162.67,185.25c1.83-3.77,7.72-6.25,11.47-7.41,1.83-.57,1.05-3.47-.8-2.89a30.06,30.06,0,0,0-7.81,3.64c-2,1.32-4.39,3-5.45,5.15-.84,1.73,1.75,3.25,2.59,1.51Z" transform="translate(-9.5 -13.5)"/><path d="M167.68,181.3c11,6.17,22.7,11.07,35.25,12.71a165.11,165.11,0,0,0,40.11,0,77.1,77.1,0,0,0,17.36-4c.7-.26,2.75-1.46,3.6-1.45l2.76,1.69c-.32,1-.69,2-1.11,3a52.41,52.41,0,0,1-4.6,8.74c-7.88,12.16-19.76,20.84-31.49,29-1.58,1.09-.08,3.69,1.51,2.59,11.73-8.12,23.45-16.74,31.64-28.64,2.23-3.25,13.68-23.74,1.37-19.62-8.27,2.77-15.71,5.3-24.54,6.08a206.91,206.91,0,0,1-23,.43,97.91,97.91,0,0,1-47.39-13.13,1.5,1.5,0,0,0-1.51,2.59Z" transform="translate(-9.5 -13.5)"/><path d="M231.09,232A51.26,51.26,0,0,0,241,214.62a1.53,1.53,0,0,0-1.45-1.9c-9.79-1-18.92,2.2-27.61,6.4-4.2,2-8.65,4-12.39,6.84-3.33,2.5-5.72,5.85-8.07,9.24l2.74,1.16a46.59,46.59,0,0,1,11.39-19,1.52,1.52,0,0,0-1.06-2.56c-9.05-.55-19,2.91-27.55,5.49-5.51,1.66-12.15,3.6-13.69,9.89l2.95.4c1-9.05,8.28-15.81,11-24.31a1.51,1.51,0,0,0-1.44-1.9,30.78,30.78,0,0,0-19.38,8l2.51,1.46A48.36,48.36,0,0,1,167,195.54c.86-1.2-.57-2.36-1.7-2.2A274,274,0,0,1,137,195.76L138.3,198c4.9-11.16,14.72-18.3,24.44-25.06,1.57-1.09.08-3.69-1.51-2.59-10.11,7-20.43,14.53-25.52,26.14a1.51,1.51,0,0,0,1.3,2.25,281.24,281.24,0,0,0,29.13-2.53l-1.69-2.2A50.27,50.27,0,0,0,156,213a1.51,1.51,0,0,0,2.5,1.46,27.5,27.5,0,0,1,17.26-7.12l-1.45-1.9c-2.85,8.88-10.1,15.56-11.11,25.11-.18,1.7,2.55,2,3,.4,1.58-6.49,11.57-7.88,17-9.32,6.8-1.8,14.24-4.29,21.32-3.86l-1.06-2.56a49.85,49.85,0,0,0-12.16,20.35c-.53,1.7,1.82,2.49,2.74,1.15,5.19-7.47,11.34-11.12,19.38-15,8.26-4,16.8-7,26.1-6l-1.45-1.9a47.16,47.16,0,0,1-9.1,16c-1.25,1.46.86,3.59,2.12,2.12Z" transform="translate(-9.5 -13.5)"/><path d="M161.86,169.87c-5-.19-13.83-2.57-17.26,2.33l2.59,1.51c6.16-9,18.26-17.25,29-19.13a1.51,1.51,0,0,0,.36-2.74,23.47,23.47,0,0,0-21.32-1.15l1.52,2.59a69.79,69.79,0,0,1,19.88-9.61,1.53,1.53,0,0,0,.36-2.75l-6.29-4.4c-2.63-1.85-6.31-3-4.81-7.12.7-1.93,3.9-4.39,5.29-5.94l5.28-5.94c1.28-1.44-.84-3.57-2.12-2.12l-9.25,10.39c-1.37,1.54-4.41,3.92-4,6.42.27,1.75,2.13,2.67,3.42,3.59,3.65,2.59,7.33,5.14,11,7.71l.36-2.74a72.87,72.87,0,0,0-20.6,9.92,1.5,1.5,0,0,0,1.52,2.59A20.26,20.26,0,0,1,175,154.43l.35-2.74c-11.5,2-24.22,10.93-30.79,20.51-1.1,1.6,1.49,3.08,2.59,1.51,2.05-2.92,11.65-1,14.67-.84,1.93.08,1.92-2.92,0-3Z" transform="translate(-9.5 -13.5)"/><path d="M135.79,127.49A160.13,160.13,0,0,0,158.27,114l-2.21-.9a12.53,12.53,0,0,1-1.65,8.71,12.28,12.28,0,0,0-1.81,3.82,1.52,1.52,0,0,0,2.2,1.7l29.47-16.05L182,110c-.46,6-6.58,9.63-7,15.83a1.52,1.52,0,0,0,1.5,1.5c10.67-1.35,18.89-7.88,26.84-14.66l-2.57-1.06c.18,5.17-2,9.41-4.45,13.81-.93,1.69,1.66,3.2,2.6,1.52,2.7-4.88,5-9.63,4.85-15.33a1.52,1.52,0,0,0-2.56-1.06c-7.24,6.18-14.93,12.54-24.71,13.78l1.5,1.5c.46-6,6.58-9.64,7-15.83a1.51,1.51,0,0,0-2.26-1.3l-29.46,16,2.2,1.69c.57-2.69,2.75-4.76,3.42-7.49a16.15,16.15,0,0,0,.05-6.64,1.51,1.51,0,0,0-2.21-.89,160.13,160.13,0,0,1-22.48,13.53c-1.73.86-.21,3.45,1.52,2.59Z" transform="translate(-9.5 -13.5)"/><path d="M198.32,128.17A52.34,52.34,0,0,0,221.16,114c1.33-1.41-.79-3.53-2.12-2.13a49.18,49.18,0,0,1-21.52,13.39c-1.84.57-1.05,3.46.8,2.89Z" transform="translate(-9.5 -13.5)"/><path d="M219.24,114.67a56,56,0,0,1,13.92,8.62c1.5,1.29,4.4,3.25,5.14,5,1.91,4.64-1.09,6.81-3.86,9.72a1.51,1.51,0,0,0,1.82,2.36l2.13,1.62a5.53,5.53,0,0,1-1.5,3.21c-.66.95-1.53,1.73-2.25,2.63a15.65,15.65,0,0,0-2.2,3.74c-.74,1.77,2.16,2.55,2.89.79,1.66-3.94,7.09-6.71,5.89-11.66-.78-3.19-3.71-4.23-6.48-2.92l1.82,2.35c2-2.14,5.47-4.64,6.38-7.59.82-2.65-.9-4.52-2.52-6.37a55.85,55.85,0,0,0-19.67-14.14c-1.75-.77-3.27,1.81-1.51,2.59Z" transform="translate(-9.5 -13.5)"/><path d="M209,151.49c-5.74.34-12.26,4.8-14.61,10.13-2.73,6.21,1.85,9.91,7.22,11.74,1.83.63,2.62-2.27.8-2.89-1.56-.53-3.44-1.08-4.62-2.31-2.48-2.58-.77-5.8,1.14-7.93,2.6-2.89,6.08-5.51,10.07-5.74,1.92-.12,1.93-3.12,0-3Z" transform="translate(-9.5 -13.5)"/><path d="M213.08,159.39c-3,.4-7.58,2.31-6,6.17,1.45,3.57,7.66,5.81,11.2,5.64,3.94-.19,6.18-3,5.11-6.86-1.15-4.1-5.79-6-9.73-5.54-1.89.25-1.91,3.25,0,3a7.11,7.11,0,0,1,4.8.86c1,.59,2.2,1.73,2.13,2.93a2.86,2.86,0,0,1-2.72,2.63,12.51,12.51,0,0,1-4.9-1.45c-.7-.32-2.21-.87-2.6-1.61-1-1.9,1.41-2.59,2.73-2.77,1.89-.25,1.91-3.25,0-3Z" transform="translate(-9.5 -13.5)"/><path d="M210.56,164.91a35,35,0,0,1,4.45-.31,1.53,1.53,0,0,0,1.45-1.9l-.1-.67-1.45,1.9a19,19,0,0,1,3.62,0l-.89-.68a18,18,0,0,1,1.43,3.23l.39-1.46c-1.53,1.34-2.8,0-4.28-.55a14.14,14.14,0,0,0-4-.67A1.51,1.51,0,0,0,209.9,166a8,8,0,0,0,4.2,3.14c1.84.6,2.63-2.29.8-2.9a4.56,4.56,0,0,1-2.41-1.75l-1.3,2.25a9.46,9.46,0,0,1,3.38.66,9.88,9.88,0,0,0,2.59,1.11,5.31,5.31,0,0,0,4.42-1.43,1.48,1.48,0,0,0,.39-1.46c-.53-1.26-1-3.52-2.13-4.37s-3.55-.38-4.93-.36a1.53,1.53,0,0,0-1.45,1.9l.11.67,1.44-1.9a35,35,0,0,0-4.45.31c-1.88.25-1.91,3.25,0,3Z" transform="translate(-9.5 -13.5)"/><path d="M216.51,166.6h2.34a1.51,1.51,0,0,0,1.5-1.5,1.53,1.53,0,0,0-1.5-1.5h-2.34a1.5,1.5,0,0,0,0,3Z" transform="translate(-9.5 -13.5)"/><path d="M219.55,139.84a1.5,1.5,0,0,0,0,3A1.5,1.5,0,0,0,219.55,139.84Z" transform="translate(-9.5 -13.5)"/></g><g id="circle"><path d="M157.5,23.5a138,138,0,0,1,97.58,235.58A138,138,0,1,1,59.92,63.92,137.07,137.07,0,0,1,157.5,23.5m0-10a148,148,0,1,0,148,148,148,148,0,0,0-148-148Z" transform="translate(-9.5 -13.5)"/></g></svg>